<?xml version="1.0" standalone="no"?>
<!DOCTYPE svg PUBLIC "-//W3C//DTD SVG 1.1//EN" "http://www.w3.org/Graphics/SVG/1.1/DTD/svg11.dtd" >
<svg xmlns="http://www.w3.org/2000/svg">
<metadata></metadata>
<defs>
<font id="sifonnbasic_outline" horiz-adv-x="1232" >
<font-face units-per-em="2048" ascent="1536" descent="-512" />
<missing-glyph horiz-adv-x="862" />
<glyph unicode="&#xfb01;" horiz-adv-x="1255" d="M16 735v330h144q6 217 159 358q157 148 383 148h31v-361h-31q-88 0 -141 -47q-48 -39 -51 -98h661v-1096h-350v766h-311v-766h-352v766h-142zM78 797h141v-766h230v766h434v-766h227v973h-661v55q0 90 73 151q60 54 150 60v237q-184 -9 -310 -129q-69 -63 -106 -148.5 t-37 -180.5v-45h-141v-207zM811 1382q0 75 59 134q60 57 140 57q85 0 145 -57q57 -54 57 -134q0 -82 -57 -139q-60 -57 -145 -57q-80 0 -139.5 58.5t-59.5 137.5zM872 1382q0 -53 41 -94t97 -41q60 0 100.5 39t40.5 96q0 52 -39 88q-41 41 -102 41q-56 0 -97 -41t-41 -88z " />
<glyph unicode="&#xfb02;" horiz-adv-x="1273" d="M16 735v330h144q6 216 159 360q158 146 383 146h31v-361h-31q-87 0 -141 -45q-48 -42 -51 -100h311v491h350v-1587h-350v766h-311v-766h-352v766h-142zM78 797h141v-766h230v766h434v-766h227v1464h-227v-491h-434v55q0 89 73 153q60 50 150 60v237q-184 -9 -310 -129 q-143 -134 -143 -331v-45h-141v-207z" />
<glyph unicode="&#xfb03;" horiz-adv-x="1929" d="M25 735v330h143q3 105 44 197t116 161q157 148 383 148h30v-361h-30q-89 0 -142 -47q-48 -39 -51 -98h313q6 211 162 358q77 71 175.5 109.5t205.5 38.5h31v-361h-31q-87 0 -143 -47q-48 -39 -51 -98h665v-1096h-352v766h-313v-766h-351v766h-311v-766h-352v766h-141z M86 797h141v-766h230v766h434v-766h227v766h436v-766h230v973h-666v55q0 90 74 151q63 54 151 60v237q-180 -9 -309 -129q-69 -63 -106 -148.5t-37 -180.5v-45h-434v55q0 90 73 151q60 54 150 60v237q-183 -9 -309 -129q-69 -63 -106.5 -148.5t-37.5 -180.5v-45h-141v-207z M1483 1382q0 75 59 134q60 57 139 57q86 0 146 -57q57 -54 57 -134q0 -82 -57 -139q-60 -57 -146 -57q-80 0 -139 58.5t-59 137.5zM1544 1382q0 -53 41 -94t96 -41q60 0 101 39t41 96q0 52 -39 88q-41 41 -103 41q-55 0 -96 -41t-41 -88z" />
<glyph horiz-adv-x="2048" />
<glyph horiz-adv-x="2048" />
<glyph unicode="&#xd;" horiz-adv-x="2048" />
<glyph unicode=" "  horiz-adv-x="862" />
<glyph unicode="&#x09;" horiz-adv-x="862" />
<glyph unicode="&#xa0;" horiz-adv-x="862" />
<glyph unicode="!" horiz-adv-x="628" d="M125 129q0 79 54.5 133.5t133.5 54.5q82 0 136.5 -54t54.5 -134q0 -78 -53 -131q-55 -55 -138 -55q-82 0 -137 55q-51 54 -51 131zM150 451v1105h329v-1105h-329zM186 129q0 -53 35 -88q34 -37 92 -37t95 37q34 34 34 88q0 55 -36.5 91t-92.5 36q-55 0 -92 -37 q-35 -35 -35 -90zM211 512h207v983h-207v-983z" />
<glyph unicode="&#x22;" horiz-adv-x="808" d="M47 1057v526h770l-162 -526h-231v483l-148 -483h-229zM109 1118h120l125 404h-245v-404zM485 1118h123l125 404h-248v-404z" />
<glyph unicode="#" horiz-adv-x="1486" d="M84 387v291h274l52 188h-254v291h327l105 399h293l-101 -399h183l104 399h293l-100 -399h190v-291h-266l-47 -188h241v-291h-313l-107 -418h-303l109 418h-178l-107 -418h-303l109 418h-201zM145 449h217l-108 -418h176l107 418h305l-109 -418h176l107 418h301v167h-258 l76 312h254v168h-207l100 399h-166l-104 -399h-310l101 399h-166l-105 -399h-315v-168h270l-79 -312h-263v-167zM580 616l75 312h312l-80 -312h-307zM657 678h181l51 188h-184z" />
<glyph unicode="$" horiz-adv-x="1159" d="M27 203l313 229l18 -22q44 -58 93.5 -79.5t113.5 -21.5t110 45t46 107q0 48 -18 84t-49.5 56.5t-64.5 31t-71 14.5q-207 21 -334 148q-129 129 -129 317q0 162 111 295q89 105 227 154v163h330v-174q142 -49 246 -174l22 -24l-299 -217l-18 18q-26 29 -66 47.5t-73 18.5 q-52 0 -81.5 -27.5t-29.5 -77.5q0 -45 35 -70q46 -34 149 -40q218 -16 355 -150q149 -143 149 -371q0 -195 -121 -340q-107 -128 -268 -176v-172h-330v170q-199 51 -344 211zM117 193q61 -61 139 -107q82 -48 174 -66l25 -4v-159h207v157l22 6q158 39 260 162 q107 131 107 301q0 203 -131 328q-125 119 -316 131q-123 6 -184 55q-58 45 -58 117q0 75 48 120.5t125 45.5q83 0 163 -66l203 148q-92 96 -219 137l-20 6v158h-207v-150l-23 -6q-131 -36 -219 -141q-96 -113 -96 -254q0 -165 109.5 -273.5t299.5 -131.5q122 -12 187 -74 q69 -66 69 -172q0 -88 -64 -150.5t-153 -62.5q-79 0 -135 26q-52 20 -100 74z" />
<glyph unicode="%" horiz-adv-x="1857" d="M39 1102q0 159 108 270q111 111 263 111q159 0 270 -111t111 -270q0 -153 -111.5 -262t-269.5 -109q-151 0 -261 110t-110 261zM100 1102q0 -125 92 -217t218 -92q132 0 225.5 90.5t93.5 218.5q0 135 -92 227t-227 92q-125 0 -217 -92q-93 -96 -93 -227zM262 1102 q0 70 42.5 117t105.5 47q65 0 110 -45q43 -46 43 -119q0 -65 -41 -109q-47 -47 -112 -47q-60 0 -104 46.5t-44 109.5zM324 1102q0 -37 25.5 -65.5t60.5 -28.5q44 0 68 28.5t24 65.5q0 49 -27 76q-23 26 -65 26q-37 0 -61.5 -29t-24.5 -73zM403 -31l713 1587h311l-700 -1587 h-324zM498 31h188l647 1464h-176zM1067 412q0 158 109 270q111 111 262 111q159 0 270 -111t111 -270q0 -153 -111.5 -262t-269.5 -109q-151 0 -261 110t-110 261zM1128 412q0 -125 92 -217.5t218 -92.5q132 0 225.5 91t93.5 219q0 135 -92 227t-227 92q-125 0 -217 -92 q-93 -96 -93 -227zM1290 412q0 70 42.5 116.5t105.5 46.5q65 0 110 -45q43 -46 43 -118q0 -66 -43 -109q-47 -47 -110 -47q-60 0 -104 46.5t-44 109.5zM1352 412q0 -37 25.5 -66t60.5 -29q42 0 67 29t25 66q0 48 -27 75q-24 27 -65 27q-37 0 -61.5 -29t-24.5 -73z" />
<glyph unicode="&#x26;" horiz-adv-x="1374" d="M55 541q0 181 99 319q88 127 231 189l-270 507h893v-329h-340l252 -486h-289q-91 0 -148 -61.5t-57 -161.5q0 -88 66 -151q71 -68 170 -68q88 0 143 55.5t55 143.5v211h512v-312h-162q-36 -191 -178 -315q-158 -139 -370 -139q-124 0 -235 44.5t-196 127.5 q-86 83 -131 192.5t-45 233.5zM117 541q0 -111 40.5 -210.5t116.5 -172.5q75 -74 175.5 -114t212.5 -40q187 0 329 123q140 125 162 305l4 27h154v188h-389v-149q0 -113 -74 -187q-73 -73 -186 -73q-123 0 -213 84q-84 84 -84 196q0 126 73 205q77 80 193 80h186l-252 485 h381v207h-729l254 -479l-33 -12q-147 -53 -233 -179q-88 -127 -88 -284z" />
<glyph unicode="'" horiz-adv-x="430" d="M47 1057v526h389l-162 -526h-227zM109 1118h120l125 404h-245v-404z" />
<glyph unicode="(" horiz-adv-x="663" d="M68 629q0 258 73.5 497.5t214.5 442.5l19 26l248 -172l-17 -24q-99 -166 -155 -359q-60 -211 -60 -411q0 -216 62 -426q58 -197 168 -373l16 -25l-262 -182l-17 27q-290 459 -290 979zM129 629q0 -483 264 -920l160 113q-100 167 -160 364q-63 220 -63 443q0 208 63 428 q51 179 146 350l-150 102q-260 -392 -260 -880z" />
<glyph unicode=")" horiz-adv-x="663" d="M29 -195l16 25q110 176 168 373q61 207 61 426q0 204 -59 411q-55 189 -156 359l-16 24l248 172l18 -26q141 -203 215 -442.5t74 -497.5q0 -518 -291 -979l-16 -27zM113 -178l159 -113q265 439 265 920q0 487 -261 880l-149 -102q93 -167 145 -350q64 -223 64 -428 q0 -220 -64 -443q-61 -201 -159 -364z" />
<glyph unicode="*" horiz-adv-x="782" d="M27 1057l178 129l-178 131l131 176l123 -90v153h219v-153l127 90l131 -176l-180 -131l180 -129l-131 -176l-127 90v-156h-219v156l-123 -90zM113 1042l59 -77l170 127v-215h96v215l174 -127l58 77l-197 144l197 145l-58 78l-174 -127v213h-96v-213l-170 127l-59 -78 l196 -145z" />
<glyph unicode="+" horiz-adv-x="1204" d="M76 578v290h370v383h312v-383h370v-290h-370v-381h-312v381h-370zM137 639h371v-381h188v381h371v168h-371v383h-188v-383h-371v-168z" />
<glyph unicode="," horiz-adv-x="598" d="M0 -365l156 527h405l-323 -527h-238zM82 -303h123l246 403h-250z" />
<glyph unicode="-" horiz-adv-x="808" d="M76 485v289h657v-289h-657zM137 547h535v166h-535v-166z" />
<glyph unicode="." horiz-adv-x="581" d="M102 129q0 76 54 133q55 55 135 55q82 0 137 -55q51 -54 51 -133q0 -80 -51 -131q-55 -55 -137 -55q-80 0 -135 55q-54 57 -54 131zM164 129q0 -53 35 -88q37 -37 92 -37q57 0 94 37q33 33 33 88t-35 90q-34 37 -92 37q-55 0 -92 -37q-35 -35 -35 -90z" />
<glyph unicode="/" horiz-adv-x="1167" d="M-104 -365l985 1921h325l-968 -1921h-342zM-4 -303h205l907 1798h-190z" />
<glyph unicode="0" horiz-adv-x="1761" d="M61 762q0 163 64 319q62 148 176 262t260 175q151 65 320 65q164 0 312.5 -62t264.5 -178q117 -117 178.5 -266.5t61.5 -314.5q0 -162 -64 -318q-62 -148 -176 -262t-258 -174q-151 -65 -317 -65q-169 0 -320 65q-146 61 -262 174q-111 111 -174 262q-66 153 -66 318z M123 762q0 -153 59 -295q60 -138 162 -240q107 -107 247 -165t292 -58q151 0 288.5 58t243.5 165q108 108 162 240q59 142 59 295t-57 292t-164 246q-106 106 -244.5 164t-289.5 58t-290 -58t-247 -164q-107 -107 -164 -246t-57 -292zM367 762q0 107 38.5 206t110.5 175 q72 75 166.5 115t198.5 40q103 0 197.5 -40t164.5 -115q150 -159 150 -381q0 -146 -67 -268t-184.5 -192.5t-258.5 -70.5q-104 0 -199.5 40t-167.5 114q-72 75 -110.5 172.5t-38.5 204.5zM428 762q0 -198 133 -334q129 -135 322 -135q124 0 227 62t162 170t59 237 q0 198 -131 338q-131 137 -319 137q-91 0 -174 -35.5t-146 -101.5q-133 -139 -133 -338z" />
<glyph unicode="1" horiz-adv-x="649" d="M25 1227v329h550v-1587h-358v1258h-192zM86 1288h193v-1257h235v1464h-428v-207z" />
<glyph unicode="2" horiz-adv-x="1085" d="M10 -31l422 693q-141 31 -244 143q-118 134 -118 309q0 89 35.5 174.5t99.5 151.5q65 70 151 106.5t179 36.5q192 0 329 -137t137 -332q0 -132 -75 -256l-340 -559h475v-330h-1051zM119 31h880v207h-522l397 651q66 109 66 225q0 170 -119 289q-116 119 -286 119 q-168 0 -285 -123q-119 -122 -119 -285q0 -151 105 -268q102 -115 249 -133l47 -6zM344 1110q0 79 57 133q52 55 131 55q82 0 134 -55q55 -52 55 -133q0 -79 -55 -131q-54 -57 -134 -57q-77 0 -131 57q-57 54 -57 131zM406 1110q0 -51 37.5 -89t88.5 -38q52 0 89.5 38 t37.5 89q0 52 -37.5 89.5t-89.5 37.5q-51 0 -88.5 -37.5t-37.5 -89.5z" />
<glyph unicode="3" horiz-adv-x="1083" d="M12 205l295 215l19 -29q26 -43 66.5 -67.5t86.5 -24.5q80 0 133 59q56 56 56 136q0 87 -53.5 143.5t-135.5 56.5h-282l274 533h-354v329h905l-291 -555q136 -60 215 -180q92 -133 92 -303q0 -119 -41.5 -224.5t-119.5 -184.5q-78 -80 -181 -123t-217 -43q-135 0 -256 65 q-114 61 -192 172zM98 190q67 -80 154 -127q109 -59 227 -59q207 0 352 148q146 149 146 366q0 146 -80 268q-81 119 -219 170l-33 13l275 526h-742v-207h395l-274 -532h180q107 0 176 -72q74 -77 74 -190q0 -104 -72 -179q-74 -77 -178 -77q-113 0 -188 94z" />
<glyph unicode="4" horiz-adv-x="1193" d="M-23 336l617 1220h371l-445 -890h111v149h348v-149h205v-330h-205v-367h-348v367h-654zM78 397h614v-366h226v366h204v207h-204v150h-226v-150h-272l444 891h-231z" />
<glyph unicode="5" horiz-adv-x="1112" d="M12 201l295 215l17 -27q28 -41 69 -65.5t84 -24.5q99 0 156 51q61 52 61 144q0 100 -53 153q-48 45 -139 45h-357v864h742v-329h-408v-176h23q250 0 403.5 -147t153.5 -386q0 -119 -43 -224.5t-125 -184.5q-82 -80 -189 -123t-225 -43q-130 0 -249.5 62.5t-196.5 170.5z M98 186q63 -74 160 -127q110 -55 219 -55q105 0 201 39t170 111q149 146 149 364q0 213 -135 342q-132 129 -360 129h-84v299h407v207h-618v-741h295q115 0 180 -62q74 -71 74 -198q0 -120 -84 -189q-76 -67 -195 -67q-108 0 -184 92z" />
<glyph unicode="6" horiz-adv-x="1230" d="M53 494q0 151 86 299l436 763h390l-287 -507q206 -26 344.5 -184t138.5 -371q0 -109 -42 -210.5t-120 -177.5q-78 -78 -180.5 -120.5t-214.5 -42.5q-107 0 -213 45q-98 40 -176 118q-75 75 -119 175q-43 101 -43 213zM115 494q0 -97 37 -186t106 -158q146 -146 346 -146 q206 0 352 146q69 69 106.5 158t37.5 186q0 201 -138 345t-337 150l-50 2l283 504h-246l-419 -733q-78 -138 -78 -268zM360 494q0 116 72 188q69 72 172 72q108 0 178 -73t70 -187q0 -106 -70 -179q-74 -77 -178 -77q-98 0 -172 77q-72 75 -72 179zM422 494q0 -82 53 -138 q54 -57 129 -57q78 0 132.5 56.5t54.5 138.5q0 88 -54 145q-53 53 -133 53q-76 0 -129 -53q-53 -56 -53 -145z" />
<glyph unicode="7" horiz-adv-x="1089" d="M-37 -31l637 1258h-565v329h1122l-809 -1587h-385zM63 31h246l748 1464h-961v-207h604z" />
<glyph unicode="8" horiz-adv-x="1216" d="M53 494q0 220 154 383q-68 106 -68 237q0 193 137 330q136 139 328 139q127 0 235 -63t171 -171t63 -235q0 -126 -65 -235q153 -162 153 -385q0 -110 -42 -211t-120 -179t-180 -119.5t-215 -41.5q-112 0 -213 43q-103 45 -176 118q-74 74 -119 177q-43 101 -43 213z M115 494q0 -97 37 -186t106 -158q146 -146 346 -146q100 0 190.5 37t159.5 106q146 146 146 347q0 212 -152 358l-20 18l16 21q68 108 68 223q0 169 -119.5 288.5t-288.5 119.5q-164 0 -285 -121q-118 -121 -118 -287q0 -126 69 -223l17 -23l-21 -18q-151 -148 -151 -356z M360 494q0 114 72 186q71 74 172 74q105 0 176 -74q72 -72 72 -186q0 -105 -70 -181q-72 -75 -178 -75q-103 0 -172 75q-72 75 -72 181zM422 494q0 -82 53 -138q54 -57 129 -57q78 0 132.5 56.5t54.5 138.5q0 89 -54 143q-55 55 -133 55q-74 0 -129 -55q-53 -56 -53 -143z M432 1114q0 77 49 129q50 53 123 53q75 0 125 -53q51 -51 51 -129t-50.5 -130t-125.5 -52q-73 0 -123 53q-49 52 -49 129zM494 1114q0 -51 32 -86t78 -35q50 0 82.5 34.5t32.5 86.5t-32.5 86.5t-82.5 34.5q-47 0 -78.5 -34.5t-31.5 -86.5z" />
<glyph unicode="9" horiz-adv-x="1230" d="M55 1032q0 110 42 210.5t120 178.5q80 78 182.5 120t214.5 42q109 0 209 -42t178 -120q76 -76 119 -174q43 -104 43 -215q0 -143 -59 -246l-463 -817h-383l287 510q-195 21 -334 164q-75 78 -115.5 179t-40.5 210zM117 1032q0 -204 139 -346q69 -70 157 -109.5t183 -39.5 h51l-282 -506h239l447 786q51 86 51 215q0 202 -144 346q-69 69 -158 106.5t-186 37.5q-100 0 -191.5 -37.5t-160.5 -106.5q-145 -142 -145 -346zM365 1032q0 109 71 180q73 76 178 76q101 0 174 -76q70 -73 70 -180q0 -111 -72 -186q-71 -74 -172 -74q-104 0 -178 74 q-71 74 -71 186zM426 1032q0 -86 53 -142t135 -56q75 0 127 55q56 56 56 143q0 83 -56 139q-53 56 -127 56q-79 0 -135 -56q-53 -56 -53 -139z" />
<glyph unicode=":" horiz-adv-x="581" d="M102 129q0 76 54 133q55 55 135 55q82 0 137 -55q51 -54 51 -133q0 -80 -51 -131q-55 -55 -137 -55q-80 0 -135 55q-54 57 -54 131zM102 920q0 82 53.5 135t135.5 53q83 0 135.5 -53t52.5 -135q0 -81 -51 -132q-55 -55 -137 -55q-80 0 -135 55q-54 57 -54 132zM164 129 q0 -53 35 -88q37 -37 92 -37q57 0 94 37q33 33 33 88t-35 90q-34 37 -92 37q-55 0 -92 -37q-35 -35 -35 -90zM164 920q0 -54 35 -89q36 -36 92 -36q58 0 94 36q33 33 33 89q0 55 -35 90q-34 37 -92 37q-55 0 -92 -37q-35 -35 -35 -90z" />
<glyph unicode=";" horiz-adv-x="598" d="M0 -365l156 527h405l-323 -527h-238zM82 -303h123l246 403h-250zM129 920q0 82 53 135t135 53q85 0 138 -53t53 -135q0 -79 -53 -132q-55 -55 -138 -55q-79 0 -133.5 54.5t-54.5 132.5zM190 920q0 -54 35 -89q36 -36 92 -36q59 0 95 36q34 34 34 89q0 56 -36 91.5 t-93 35.5q-58 0 -92 -37q-35 -35 -35 -90z" />
<glyph unicode="&#x3c;" horiz-adv-x="894" d="M27 719l792 821v-412l-399 -407l399 -385v-410zM113 721l645 -645v233l-424 410l424 436v231z" />
<glyph unicode="=" horiz-adv-x="1204" d="M111 338v291h981v-291h-981zM111 817v291h981v-291h-981zM172 399h858v168h-858v-168zM172 879h858v168h-858v-168z" />
<glyph unicode="&#x3e;" horiz-adv-x="894" d="M76 -72v410l399 385l-399 407v412l792 -821zM137 78l645 645l-645 666v-232l424 -436l-424 -410v-233z" />
<glyph unicode="?" horiz-adv-x="923" d="M23 1358l16 24q64 95 164 148t213 53q197 0 334 -137q135 -135 135 -332q0 -161 -103 -289q-90 -112 -237 -155v-221h-330v526h215q53 5 89 45.5t36 95.5q0 68 -38 109t-101 41q-77 0 -113 -68l-16 -31zM109 1372l159 -117q54 72 148 72q89 0 145 -59q55 -58 55 -152 q0 -80 -53 -139.5t-131 -63.5h-156v-403h207v209l25 6q138 29 226.5 139t88.5 250q0 173 -116 289q-119 119 -291 119q-89 0 -170 -39.5t-137 -110.5zM190 129q0 76 54 133q55 55 135 55q82 0 137 -55q51 -54 51 -133q0 -80 -51 -131q-55 -55 -137 -55q-80 0 -135 55 q-54 57 -54 131zM252 129q0 -53 35 -88q37 -37 92 -37q57 0 94 37q33 33 33 88t-35 90q-34 37 -92 37q-55 0 -92 -37q-35 -35 -35 -90z" />
<glyph unicode="@" horiz-adv-x="1953" d="M61 666q0 186 71.5 354.5t203.5 296.5q132 129 304.5 197.5t363.5 68.5q181 0 342.5 -59.5t287.5 -173.5q126 -117 189 -254q69 -147 69 -314q0 -146 -55 -283t-158 -247q-105 -113 -242.5 -185.5t-289.5 -89.5l-37 -4v328q-58 -25 -129 -25q-179 0 -299.5 120 t-120.5 300q0 78 32 154.5t89 138.5q125 131 291 131q98 0 194 -45h234v-696q84 57 133 141q63 108 63 262q0 108 -43.5 205t-126.5 172q-172 158 -423 158q-132 0 -251 -49t-210 -140q-90 -91 -138.5 -210t-48.5 -252q0 -128 48.5 -243.5t138.5 -203.5q91 -88 210 -134 t253 -46h30v-281h-30q-195 0 -370.5 70t-307.5 201q-130 130 -195 288q-72 170 -72 349zM123 666q0 -170 65 -324q66 -154 185 -270q116 -116 272 -181t330 -71v157q-286 13 -473 197q-100 97 -153.5 224t-53.5 268q0 146 53 276t152 229q100 100 230 153.5t274 53.5 q275 0 464 -174q92 -83 141.5 -192.5t49.5 -229.5q0 -164 -72 -293q-69 -123 -203 -190l-45 -25v740h-186l-6 2q-87 43 -174 43q-142 0 -246 -113q-104 -110 -104 -250q0 -154 102 -256t256 -102q85 0 143 39l47 35v-367q134 25 253 88.5t210 159.5q95 103 146 229t51 260 q0 148 -61.5 283.5t-176.5 239.5q-117 105 -269 161t-320 56q-243 0 -445.5 -113.5t-319 -310t-116.5 -432.5zM784 698q0 78 57.5 136.5t135.5 58.5q81 0 139 -57.5t58 -137.5q0 -81 -58 -139q-58 -55 -139 -55q-78 0 -133 55q-60 57 -60 139zM846 698q0 -56 41 -94 q39 -39 90 -39q57 0 96 38.5t39 94.5t-39 94.5t-96 38.5q-52 0 -90 -38q-41 -41 -41 -95z" />
<glyph unicode="A" horiz-adv-x="1607" d="M-51 -31l856 1651l858 -1651h-416l-100 203h-703l-98 -203h-397zM51 31h258l99 202h776l100 -202h277l-756 1456zM514 461l279 577l282 -577h-561zM612 522h365l-184 375z" />
<glyph unicode="B" horiz-adv-x="1320" d="M125 -31v1587h520q236 0 369 -100q147 -114 147 -334q0 -155 -92 -254q89 -70 135 -155q56 -103 56 -221q0 -123 -48 -222q-47 -96 -129 -166q-163 -135 -395 -135h-563zM186 31h502q210 0 356 121q154 132 154 340q0 107 -48 197.5t-144 150.5l-33 20l28 27 q99 89 99 235q0 190 -123 285q-120 88 -332 88h-459v-1464zM442 256v455h256q109 0 174 -62q62 -62 62 -168q0 -104 -63.5 -164.5t-172.5 -60.5h-256zM442 926v344h191q90 0 137 -33q66 -45 66 -139q0 -76 -35 -115q-51 -57 -168 -57h-191zM504 317h194q88 0 131 43t43 121 q0 82 -44.5 125t-129.5 43h-194v-332zM504 987h129q47 0 77 9t43 27t17 34.5t4 40.5q0 65 -39 88q-36 22 -102 22h-129v-221z" />
<glyph unicode="C" horiz-adv-x="1755" d="M61 762q0 170 64 319q63 151 172 260q115 115 260 177q151 65 317 65q222 0 408 -106q183 -103 293 -279l14 -24l-297 -211l-16 26q-78 113 -184 172q-101 58 -215 58q-179 0 -304 -134q-124 -133 -124 -323q0 -189 124 -322q125 -131 304 -131q158 0 282 105 q125 109 152 266l4 25h381l-2 -35q-17 -148 -86.5 -281.5t-182.5 -234.5q-115 -102 -256 -156.5t-292 -54.5q-164 0 -313 61.5t-265 177.5q-114 117 -174 260q-64 149 -64 320zM123 762q0 -152 56.5 -291t162.5 -246q105 -107 243.5 -164t291.5 -57q140 0 270.5 51 t234.5 146q201 180 246 442h-262q-38 -164 -168 -276q-141 -119 -321 -119q-207 0 -349 151q-68 72 -104.5 166t-36.5 197q0 212 141 366q143 152 349 152q126 0 243 -63q112 -64 189 -168l198 141q-100 146 -256 233q-181 99 -377 99q-150 0 -288 -58t-244 -166 q-106 -107 -162.5 -245.5t-56.5 -290.5z" />
<glyph unicode="D" horiz-adv-x="1665" d="M125 -31v1587h649q168 0 319.5 -58.5t266.5 -168.5q118 -110 181 -256t63 -309q0 -164 -62.5 -310t-181.5 -259q-116 -109 -266.5 -167.5t-317.5 -58.5h-651zM186 31h590q155 0 295.5 54t247.5 155q108 102 165.5 237.5t57.5 286.5t-57 285t-166 237q-107 101 -248 155 t-297 54h-588v-1464zM442 256v1014h332q104 0 197 -37.5t162 -106.5q145 -142 145 -362q0 -105 -37.5 -199t-107.5 -164q-69 -70 -161.5 -107.5t-195.5 -37.5h-334zM504 317h272q187 0 314 127t127 320q0 192 -127 319q-128 125 -316 125h-270v-891z" />
<glyph unicode="E" horiz-adv-x="1193" d="M125 -31v1587h872v-348h-493v-223h573v-346h-573v-322h629v-348h-1008zM186 31h885v225h-629v444h574v224h-574v346h494v225h-750v-1464z" />
<glyph unicode="F" horiz-adv-x="1118" d="M125 -31v1587h872v-348h-493v-223h573v-346h-573v-670h-379zM186 31h256v669h574v224h-574v346h494v225h-750v-1464z" />
<glyph unicode="G" horiz-adv-x="1755" d="M61 762q0 170 64 319q62 148 174 260q117 117 258 177q151 65 317 65q222 0 408 -106q183 -103 293 -279l14 -24l-305 -222l-16 31q-61 109 -162 170q-104 66 -229 66q-179 0 -304 -134q-124 -133 -124 -323q0 -189 124 -322q125 -131 304 -131q133 0 237 66 q88 52 137 145h-397v344h844v-78q0 -167 -64 -329q-63 -153 -176 -269q-115 -115 -260 -180q-154 -65 -321 -65q-164 0 -313 61.5t-265 177.5q-114 117 -174 260q-64 149 -64 320zM123 762q0 -152 56.5 -291t162.5 -246q105 -107 243.5 -164t291.5 -57q152 0 291 59t245 168 q108 111 165.5 254t57.5 301v17h-721v-221h428l-16 -41q-54 -143 -180 -219q-118 -74 -270 -74q-207 0 -349 151q-68 72 -104.5 166t-36.5 197q0 212 141 366q143 152 349 152q139 0 262 -74q97 -59 166 -164l202 148q-100 146 -256 233q-181 99 -377 99q-150 0 -288 -58 t-244 -166q-106 -107 -162.5 -245.5t-56.5 -290.5z" />
<glyph unicode="H" horiz-adv-x="1646" d="M125 -31v1587h379v-571h639v571h379v-1587h-379v670h-639v-670h-379zM186 31h256v669h762v-669h256v1464h-256v-571h-762v571h-256v-1464z" />
<glyph unicode="I" horiz-adv-x="628" d="M125 -31v1587h379v-1587h-379zM186 31h256v1464h-256v-1464z" />
<glyph unicode="J" horiz-adv-x="1396" d="M-74 487l348 105l9 -31q62 -252 311 -252q150 0 235 115q80 103 80 258v526h-270v348h647v-874q0 -153 -43 -281q-43 -133 -131 -235q-192 -223 -520 -223q-120 0 -225 30q-115 37 -195 97q-181 132 -240 389zM-2 444q59 -215 211 -325q154 -115 383 -115q300 0 473 201 q78 90 119 213.5t41 263.5v813h-525v-225h271v-588q0 -173 -92 -295q-105 -139 -285 -139q-113 0 -201 51q-115 65 -162 217z" />
<glyph unicode="K" horiz-adv-x="1640" d="M125 -31v1587h379v-677l678 677h512l-781 -780l805 -807h-516l-559 561l-139 -139v-422h-379zM186 31h256v385l201 200l586 -585h340l-744 745l719 719h-336l-766 -764v764h-256v-1464z" />
<glyph unicode="L" horiz-adv-x="1128" d="M125 -31v1587h379v-1239h614v-348h-993zM186 31h871v225h-615v1239h-256v-1464z" />
<glyph unicode="M" horiz-adv-x="1937" d="M125 -31v1647l844 -641l841 641v-1647h-376v891l-465 -336l-465 336v-891h-379zM186 31h256v950l527 -381l526 381v-950h254v1460l-780 -592l-783 592v-1460z" />
<glyph unicode="N" horiz-adv-x="1714" d="M125 -31v1653l1085 -911v845h379v-1648l-1085 903v-842h-379zM186 31h256v911l1086 -903v1456h-256v-917l-1086 911v-1458z" />
<glyph unicode="O" horiz-adv-x="1763" d="M61 764q0 160 64 319q63 147 176 260q114 114 260 175q151 65 320 65q168 0 319 -65q150 -63 262 -175q110 -110 174 -260q66 -157 66 -319q0 -167 -66 -320q-63 -151 -174 -262q-115 -112 -260 -174q-154 -65 -319 -65q-169 0 -320 65q-146 61 -262 174 q-114 114 -176 262q-64 156 -64 320zM123 764q0 -153 57 -291.5t164 -245.5t247 -165t292 -58t290 57.5t246 165.5q103 103 162 242t59 295q0 152 -57.5 290t-163.5 246q-107 107 -246.5 164.5t-291.5 57.5t-291 -57.5t-246 -164.5t-164 -245.5t-57 -290.5zM387 764 q0 103 36.5 197.5t104.5 166.5q70 73 161.5 112.5t191.5 39.5q206 0 352 -152q143 -152 143 -364q0 -104 -37 -199.5t-106 -167.5t-159.5 -110.5t-190.5 -38.5q-101 0 -192.5 38.5t-160.5 110.5t-106 167.5t-37 199.5zM449 764q0 -194 124 -324q128 -131 310 -131 q180 0 305 131q61 63 94 147t33 177q0 188 -127 321q-128 134 -307 134q-180 0 -308 -134q-124 -130 -124 -321z" />
<glyph unicode="P" horiz-adv-x="1386" d="M125 -31v1587h551q138 0 263 -51.5t220 -148.5q89 -91 138 -207t49 -238q0 -149 -49.5 -280t-143.5 -228q-95 -98 -223.5 -150t-274.5 -52h-151v-232h-379zM186 31h256v231h213q135 0 252 48.5t199.5 134t130 206.5t47.5 260q0 109 -44 214t-126 188q-86 88 -199 135 t-239 47h-490v-1464zM442 489v781h224q83 0 151 -35q66 -31 113 -90q90 -114 90 -266q0 -167 -94 -275q-103 -115 -279 -115h-205zM504 551h143q147 0 232 94q79 88 79 234q0 83 -32.5 156.5t-100.5 123t-159 49.5h-162v-657z" />
<glyph unicode="Q" horiz-adv-x="1761" d="M61 762q0 169 64 321q60 144 176 260q117 117 260 177q147 63 320 63q172 0 319 -63q146 -61 262 -177q110 -107 174 -260q66 -157 66 -321q0 -137 -47 -270q-43 -126 -127 -232q-81 -106 -193 -180q-61 -38 -84 -49h285v-357h-1026l192 291q-128 28 -241.5 96 t-200.5 168q-97 112 -148 249.5t-51 283.5zM123 762q0 -136 46.5 -263t135.5 -229q90 -104 207 -170.5t246 -83.5l47 -6l-180 -274h850v233h-519l119 62q120 31 224.5 99.5t179.5 166.5q79 102 118 215q43 119 43 250q0 153 -57.5 291.5t-163.5 246.5q-107 107 -246.5 164.5 t-291.5 57.5t-291 -57.5t-246 -164.5t-164 -245.5t-57 -292.5zM387 762q0 104 36.5 199t104.5 167q70 73 161.5 112.5t191.5 39.5q206 0 352 -152q69 -72 106 -167t37 -199q0 -103 -37 -197t-106 -166q-142 -151 -350 -151q-137 0 -251 68t-179.5 186.5t-65.5 259.5z M449 762q0 -190 126 -322q125 -131 308 -131q180 0 305 131q127 133 127 322q0 192 -127 325q-129 132 -307 132q-180 0 -306 -132t-126 -325z" />
<glyph unicode="R" horiz-adv-x="1402" d="M125 -31v1587h561q135 0 257 -47.5t216 -136.5q92 -89 141.5 -204t49.5 -242q0 -216 -97 -369q-83 -135 -227 -215l350 -373h-506l-249 264h-117v-264h-379zM186 31h256v264h205l250 -264h338l-311 331l39 19q153 71 239 209q86 142 86 336q0 237 -172 401 q-174 168 -430 168h-500v-1464zM442 520v750h224q170 0 268 -109q90 -104 90 -260q0 -183 -109 -283q-110 -98 -311 -98h-162zM504 582h100q179 0 270 82q89 80 89 237q0 136 -74 219q-79 88 -223 88h-162v-626z" />
<glyph unicode="S" horiz-adv-x="1159" d="M27 201l313 231l18 -24q44 -57 93 -78t114 -21t110.5 44.5t45.5 107.5q0 38 -12.5 69t-32 50.5t-47.5 33.5t-54.5 21t-56.5 10q-207 24 -336 150q-127 127 -127 317q0 196 156 340q67 61 154 96q84 35 170 35q124 0 231 -49q119 -55 203 -158l22 -26l-299 -217l-18 20 q-28 28 -67.5 47t-71.5 19q-52 0 -81.5 -27.5t-29.5 -77.5q0 -45 35 -70q46 -37 149 -43q214 -12 355 -147q149 -143 149 -371q0 -232 -168 -389q-76 -73 -174 -110q-100 -41 -205 -41q-143 0 -270 53q-138 60 -246 180zM117 1112q0 -166 109.5 -274.5t299.5 -130.5 q123 -15 187 -76q69 -66 69 -170q0 -88 -64 -150.5t-153 -62.5q-79 0 -135 24q-53 23 -100 76l-211 -155q91 -95 200 -140q113 -49 246 -49q92 0 180.5 35.5t157.5 99.5q71 68 109.5 157t38.5 187q0 201 -131 326q-125 119 -316 131q-119 6 -184 55q-58 49 -58 119 q0 73 48 119.5t125 46.5q85 0 163 -68l203 148q-153 162 -366 162q-73 0 -148 -30.5t-135 -84.5q-135 -123 -135 -295z" />
<glyph unicode="T" horiz-adv-x="1193" d="M18 1208v348h1158v-348h-402v-1239h-379v1239h-377zM80 1270h377v-1239h256v1239h401v225h-1034v-225z" />
<glyph unicode="U" horiz-adv-x="1595" d="M111 707v849h378v-903q0 -169 78 -256q82 -88 234 -88q158 0 235 92q74 86 74 252v903h375v-876q0 -168 -47 -307q-46 -135 -135 -234q-187 -196 -502 -196q-167 0 -303 57q-131 56 -217 162q-170 204 -170 545zM172 707q0 -318 156 -506q80 -96 194 -144 q121 -53 279 -53q144 0 262 47q112 43 194 131q78 84 123 211q43 125 43 287v815h-252v-842q0 -185 -88 -293q-95 -112 -282 -112q-185 0 -279 108q-94 104 -94 297v842h-256v-788z" />
<glyph unicode="V" horiz-adv-x="1587" d="M-51 1556h434l442 -856l418 856h397l-825 -1648zM51 1495l762 -1454l727 1454h-258l-455 -932l-481 932h-295z" />
<glyph unicode="W" horiz-adv-x="2234" d="M-55 1556h434l444 -858l109 209l-340 649h434l442 -856l418 856h398l-826 -1648l-334 629l-313 -631zM47 1495l764 -1454l311 629l336 -629l727 1454h-262l-453 -932l-481 932h-295l307 -588l-178 -342l-481 930h-295z" />
<glyph unicode="X" horiz-adv-x="1441" d="M-43 -31l508 815l-506 772h432l314 -483l305 483h407l-475 -753l543 -834h-430l-353 541l-337 -541h-408zM68 31h264l370 594l385 -594h283l-502 772l439 692h-265l-337 -537l-347 537h-284l465 -711z" />
<glyph unicode="Y" horiz-adv-x="1585" d="M-55 1556h436l426 -720l430 720h405l-651 -1073v-514h-377v486zM53 1495l623 -1024v-440h254v469l604 995h-262l-465 -778l-461 778h-293z" />
<glyph unicode="Z" horiz-adv-x="1417" d="M-35 -31l791 1239h-688v348h1339l-801 -1239h801v-348h-1442zM78 31h1268v225h-852l800 1239h-1165v-225h739z" />
<glyph unicode="[" horiz-adv-x="681" d="M125 -365v1948h502v-266h-201v-1413h201v-269h-502zM186 -303h379v145h-200v1536h200v144h-379v-1825z" />
<glyph unicode="\" horiz-adv-x="1167" d="M-39 1556h326l985 -1921h-342zM59 1495l908 -1798h204l-921 1798h-191z" />
<glyph unicode="]" horiz-adv-x="681" d="M53 -96h201v1413h-201v266h502v-1948h-502v269zM115 -158v-145h379v1825h-379v-144h200v-1536h-200z" />
<glyph unicode="^" horiz-adv-x="1103" d="M147 1622l402 502l403 -502h-352l-49 68l-49 -68h-355zM276 1683h195l78 111l82 -111h192l-274 342z" />
<glyph unicode="_" horiz-adv-x="1449" d="M-61 -90h1572v-275h-1572v275zM0 -152v-151h1450v151h-1450z" />
<glyph unicode="`" horiz-adv-x="1579" d="M532 1907l242 174l291 -457h-348zM616 1892l136 -206h200l-196 307z" />
<glyph unicode="a" d="M39 516q0 235 158 404q74 77 172 122q102 45 209 45q117 0 221 -63v41h352v-1096h-352v37q-95 -59 -221 -59q-109 0 -208 43t-175 125q-156 170 -156 401zM100 516q0 -138 64 -255t174 -185t240 -68q191 0 282 158v-135h230v973h-230v-121q-91 143 -282 143 q-94 0 -181.5 -38.5t-154.5 -110.5q-68 -72 -105 -166t-37 -195zM334 516q0 121 80 201t192 80q114 0 191 -80q75 -78 75 -201q0 -122 -75.5 -201t-190.5 -79q-113 0 -190 77q-82 82 -82 203zM395 516q0 -95 62 -160q59 -59 149 -59t146 59q59 62 59 160q0 99 -59 158 q-58 61 -146 61t-149 -61q-62 -65 -62 -158z" />
<glyph unicode="b" d="M82 -31v1587h352v-530q101 61 221 61q110 0 209 -45q100 -46 170 -122q77 -80 118.5 -184.5t41.5 -219.5q0 -112 -40.5 -215.5t-115.5 -183.5q-77 -82 -176 -126t-207 -44q-79 0 -155 28q-44 19 -66 33v-39h-352zM143 31h230v135q92 -158 282 -158q129 0 239 68.5 t174.5 185.5t64.5 254q0 102 -37 196.5t-105 166.5q-141 147 -336 147q-42 0 -88.5 -10.5t-102.5 -44.5t-91 -86v610h-230v-1464zM360 516q0 122 76 201q74 80 191 80q114 0 192 -78q80 -83 80 -203q0 -121 -80 -201q-79 -79 -192 -79q-116 0 -191.5 79.5t-75.5 200.5z M422 516q0 -99 59 -158q58 -61 146 -61t149 61q62 65 62 158q0 96 -62 158q-58 61 -149 61q-90 0 -146 -59q-59 -62 -59 -160z" />
<glyph unicode="c" horiz-adv-x="1218" d="M39 516q0 115 43 219.5t123 184.5q167 167 401 167q134 0 252 -59q118 -57 197 -156l20 -22l-280 -219l-19 24q-65 80 -170 80q-86 0 -147 -61q-64 -64 -64 -158q0 -96 64 -160q59 -59 147 -59q85 0 145 50t72 132l2 27h359l-2 -33q-7 -105 -55 -202t-128 -171 q-167 -153 -393 -153q-233 0 -401 168q-77 77 -121 180q-45 109 -45 221zM100 516q0 -208 150 -358q71 -72 163 -111t193 -39q203 0 352 137q136 127 160 299h-239q-21 -85 -88 -143q-77 -65 -185 -65q-113 0 -190 77q-82 82 -82 203t80 201t192 80q121 0 197 -82l184 143 q-72 75 -156 115q-106 53 -225 53q-101 0 -193.5 -38.5t-162.5 -110.5q-150 -150 -150 -361z" />
<glyph unicode="d" d="M39 516q0 116 41 220.5t117 183.5q74 77 172 122q96 45 209 45q120 0 221 -61v530h352v-1587h-352v39q-22 -14 -66 -33q-76 -28 -155 -28q-108 0 -207 44t-176 126q-75 80 -115.5 183.5t-40.5 215.5zM100 516q0 -137 64 -254t174 -185.5t240 -68.5q193 0 282 158v-135 h230v1464h-230v-610q-51 77 -131 109t-151 32q-95 0 -182 -38t-154 -109q-68 -72 -105 -166.5t-37 -196.5zM334 516q0 120 80 203q78 78 192 78q117 0 191 -80q75 -78 75 -201q0 -122 -75.5 -201t-190.5 -79q-113 0 -192 79q-80 80 -80 201zM395 516q0 -93 62 -158 q61 -61 149 -61t146 61q59 59 59 158q0 98 -59 160q-56 59 -146 59q-91 0 -149 -61q-62 -62 -62 -158z" />
<glyph unicode="e" horiz-adv-x="1191" d="M39 516q0 115 43 219.5t123 184.5q167 167 401 167q194 0 350 -116q142 -108 197 -269l6 -22l-534 -383h8q148 0 215 119l280 -217l-16 -23q-71 -105 -205 -168q-125 -61 -276 -61q-160 0 -296.5 76.5t-216 207.5t-79.5 285zM100 516q0 -138 71.5 -255t194 -185 t265.5 -68q124 0 235.5 48t177.5 130l-184 142q-80 -92 -229 -92q-100 0 -142 40l596 429q-48 129 -165 217q-138 104 -314 104q-101 0 -193.5 -38.5t-162.5 -110.5q-150 -150 -150 -361zM334 524q0 113 80 193t192 80q111 0 193 -82l-434 -309q-31 57 -31 118zM395 516 q0 -10 2 -14l297 213q-39 20 -88 20q-86 0 -147 -61q-64 -64 -64 -158z" />
<glyph unicode="f" horiz-adv-x="749" d="M25 735v330h143q6 215 160 360q158 146 383 146h30v-361h-30q-82 0 -136 -40.5t-57 -104.5h203v-330h-203v-766h-352v766h-141zM86 797h141v-766h230v766h202v207h-202v55q0 91 71 153q63 51 152 60v237q-183 -9 -309 -129q-144 -135 -144 -331v-45h-141v-207z" />
<glyph unicode="g" d="M39 516q0 116 41 220.5t117 183.5q74 77 172 122q96 45 209 45q120 0 221 -61v39h352v-1055q0 -113 -44.5 -216t-119.5 -178t-178.5 -119t-216.5 -44q-140 0 -268 70q-126 69 -197 180l-18 25l286 206l19 -28q28 -48 75.5 -75.5t102.5 -27.5q87 0 147 55.5t60 133.5v16 q-22 -14 -66 -33q-76 -28 -155 -28q-108 0 -207 44t-176 126q-75 80 -115.5 183.5t-40.5 215.5zM100 516q0 -137 64 -254t174 -185.5t240 -68.5q193 0 282 158v-174q0 -104 -78 -177t-190 -73q-63 0 -119 27.5t-94 76.5l-184 -133q65 -83 159 -137q107 -61 238 -61 q135 0 249.5 66.5t181.5 180.5t67 248v994h-230v-119q-35 52 -91 86t-102.5 44.5t-88.5 10.5q-95 0 -182 -38t-154 -109q-68 -72 -105 -166.5t-37 -196.5zM334 516q0 120 80 203q78 78 192 78q117 0 191 -80q75 -78 75 -201q0 -122 -75.5 -201t-190.5 -79q-113 0 -192 79 q-80 80 -80 201zM395 516q0 -93 62 -158q61 -61 149 -61t146 61q59 59 59 158q0 98 -59 160q-56 59 -146 59q-91 0 -149 -61q-62 -62 -62 -158z" />
<glyph unicode="h" horiz-adv-x="1253" d="M82 -31v1587h352v-530q95 61 242 61q108 0 203 -43t165 -126q68 -78 105 -182.5t37 -219.5v-547h-350v547q0 101 -50 160t-135 59q-87 0 -151 -61q-66 -63 -66 -158v-547h-352zM143 31h230v485q0 117 84 201q83 80 194 80q105 0 174 -72q72 -78 72 -209v-485h227v485 q0 217 -127 363q-57 68 -141 108q-79 39 -180 39q-199 0 -303 -152v621h-230v-1464z" />
<glyph unicode="i" horiz-adv-x="516" d="M57 1382q0 74 60 134q60 57 139 57q85 0 145 -57t60 -134q0 -82 -60 -139t-145 -57q-82 0 -140.5 58t-58.5 138zM82 -31v1096h352v-1096h-352zM119 1382q0 -56 41 -94q41 -41 96 -41q61 0 102 41q41 38 41 94q0 53 -42.5 91t-100.5 38q-55 0 -96 -41q-41 -38 -41 -88z M143 31h230v973h-230v-973z" />
<glyph unicode="j" horiz-adv-x="516" d="M-131 -197h31q78 0 129 45q53 47 53 121v1096h352v-1079q0 -144 -71.5 -267t-194.5 -194.5t-268 -71.5h-31v350zM-70 -256v-229q185 12 314 148t129 323v1018h-230v-1035q0 -102 -73 -166q-56 -53 -140 -59zM57 1382q0 74 60 134q60 57 139 57q85 0 145 -57t60 -134 q0 -82 -60 -139t-145 -57q-82 0 -140.5 58t-58.5 138zM119 1382q0 -56 41 -94q41 -41 96 -41q61 0 102 41q41 38 41 94q0 53 -42.5 91t-100.5 38q-55 0 -96 -41q-41 -38 -41 -88z" />
<glyph unicode="k" horiz-adv-x="1224" d="M82 -31v1587h352v-864l397 373h453l-555 -516l571 -580h-456l-359 353l-51 -50v-303h-352zM143 31h230v268l114 109l383 -377h285l-514 520l485 453h-270l-483 -453v944h-230v-1464z" />
<glyph unicode="l" horiz-adv-x="516" d="M82 -31v1587h352v-1587h-352zM143 31h230v1464h-230v-1464z" />
<glyph unicode="m" horiz-adv-x="1945" d="M82 -31v1096h352v-37q45 28 106.5 43.5t116.5 15.5q121 0 222 -49q79 -38 129 -96q67 73 170 111q91 34 198 34q247 0 379 -167q123 -153 123 -404v-547h-350v547q0 106 -55 164q-49 55 -127 55q-82 0 -137.5 -63.5t-55.5 -155.5v-547h-352v547q0 116 -53 172 q-50 47 -140 47q-67 0 -119 -61q-55 -64 -55 -158v-547h-352zM143 31h230v485q0 115 69.5 198t165.5 83q117 0 183 -66q71 -74 71 -215v-485h230v485q0 120 71 197q72 84 183 84q105 0 172 -76q71 -77 71 -205v-485h228v485q0 226 -111 365q-57 69 -135 106q-82 39 -195 39 q-93 0 -176 -31q-105 -36 -168 -121l-26 -34l-25 37q-42 67 -132 108t-192 41q-191 0 -284 -147v125h-230v-973z" />
<glyph unicode="n" horiz-adv-x="1253" d="M82 -31v1096h352v-37q37 22 82 37q77 22 160 22q108 0 203 -43t165 -124q68 -78 105 -183t37 -221v-547h-350v547q0 101 -50 160t-135 59q-92 0 -151 -53q-66 -60 -66 -166v-547h-352zM143 31h230v485q0 134 86 211q76 70 192 70q108 0 174 -72q72 -75 72 -209v-485h227 v485q0 217 -127 363q-57 68 -141 108q-79 39 -180 39q-103 0 -175 -30t-128 -115v123h-230v-973z" />
<glyph unicode="o" horiz-adv-x="1220" d="M39 516q0 115 43 219.5t123 184.5q167 167 401 167q118 0 223 -45q106 -45 183 -122q170 -167 170 -404q0 -119 -45 -221q-43 -101 -125 -180q-78 -78 -183 -123t-223 -45q-233 0 -401 168q-77 77 -121 180q-45 109 -45 221zM100 516q0 -208 150 -358q71 -72 163 -111 t193 -39q103 0 199 41q93 38 164 109q151 148 151 358q0 102 -39 195.5t-112 165.5q-72 72 -166 110.5t-197 38.5q-101 0 -193.5 -38.5t-162.5 -110.5q-150 -150 -150 -361zM334 516q0 121 80 201t192 80q119 0 199 -80q80 -77 80 -201q0 -126 -80 -203t-199 -77 q-113 0 -190 77q-82 82 -82 203zM395 516q0 -96 64 -160q59 -59 147 -59q97 0 156 59q61 61 61 160q0 95 -61 157t-156 62q-86 0 -147 -61q-64 -64 -64 -158z" />
<glyph unicode="p" d="M82 -524v1589h352v-41q104 63 221 63q109 0 208 -43t175 -124q75 -80 115.5 -183t40.5 -217q0 -234 -160 -405q-76 -81 -176 -124.5t-209 -43.5q-124 0 -215 59v-530h-352zM143 -463h230v621q102 -150 276 -150q199 0 340 150q69 72 106.5 166t37.5 196q0 101 -36 194 t-104 165q-141 147 -338 147q-70 0 -150.5 -33t-131.5 -110v121h-230v-1467zM360 518q0 123 76 199q77 80 191 80q112 0 190 -78q82 -82 82 -201q0 -123 -80 -203q-79 -79 -192 -79q-115 0 -191 79t-76 203zM422 518q0 -98 59 -160q58 -61 146 -61q91 0 151 63t60 158 q0 94 -62 156q-61 61 -149 61q-92 0 -148 -59q-57 -60 -57 -158z" />
<glyph unicode="q" d="M39 520q0 114 40.5 217t115.5 183q76 81 175 124t208 43q117 0 221 -63v41h352v-1589h-352v530q-91 -59 -215 -59q-109 0 -209 43.5t-176 124.5q-160 171 -160 405zM100 520q0 -102 37.5 -196t106.5 -166q141 -150 340 -150q174 0 276 150v-621h230v1467h-230v-121 q-51 77 -131.5 110t-150.5 33q-197 0 -338 -147q-68 -72 -104 -165t-36 -194zM334 518q0 119 80 199t192 80q114 0 191 -80q75 -75 75 -199q0 -125 -75 -203q-76 -79 -191 -79q-113 0 -192 79q-80 80 -80 203zM395 518q0 -95 60 -158t151 -63q88 0 146 61q59 62 59 160 t-57 158q-56 59 -148 59q-88 0 -149 -61q-62 -62 -62 -156z" />
<glyph unicode="r" horiz-adv-x="741" d="M82 -31v1096h352v-35q85 57 199 57q47 0 76 -4l26 -4v-370l-41 14q-37 12 -82 12q-77 0 -125 -51q-53 -59 -53 -168v-547h-352zM143 31h230v485q0 131 69 209q66 72 170 72q44 0 62 -4v233h-41q-128 0 -207 -84l-53 -55v117h-230v-973z" />
<glyph unicode="s" horiz-adv-x="843" d="M-10 137l295 215l18 -20q35 -35 90 -35q47 0 47 39q0 7 -1 11.5t-6.5 13t-20 14.5t-37.5 10q-152 21 -248 117q-100 95 -100 241q0 142 125 248q114 96 245 96q213 0 336 -176l17 -24l-254 -182l-19 16q-38 35 -74 35q-30 0 -30 -23q0 -11 10 -16q20 -13 74 -19 q177 -23 269.5 -117t92.5 -249q0 -171 -125 -281q-119 -104 -303 -104q-120 0 -213 43q-93 41 -166 123zM82 129q121 -121 309 -121q158 0 262 90q105 89 105 234q0 138 -86 215q-78 72 -221 90q-64 7 -102 28t-38 68q0 37 26 60.5t66 23.5q48 0 97 -35l164 119 q-98 125 -267 125q-112 0 -207 -82q-102 -85 -102 -201q0 -117 81 -197.5t216 -99.5q56 -9 86 -36q31 -28 31 -74q0 -45 -27 -72q-33 -28 -82 -28q-66 0 -114 36z" />
<glyph unicode="t" horiz-adv-x="759" d="M-4 735v330h156v121l352 254v-375h246v-330h-246v-299q0 -67 57 -102q55 -37 152 -37h30v-350h-30q-118 0 -221 35q-106 35 -179 96q-78 66 -118 153q-43 87 -43 197v307h-156zM57 797h156v-369q0 -186 139 -303q129 -108 330 -117v228q-111 8 -175.5 60.5t-64.5 139.5 v361h246v207h-246v317l-229 -168v-149h-156v-207z" />
<glyph unicode="u" horiz-adv-x="1253" d="M68 496v569h352v-545q0 -95 52 -159t130 -64q98 0 154 49q65 56 65 174v545h350v-1096h-350v41q-48 -25 -90 -37q-86 -26 -168 -26q-104 0 -196 42.5t-162 121.5q-137 159 -137 385zM129 496q0 -206 123 -344q125 -144 311 -144q211 0 320 146v-123h227v973h-227v-484 q0 -148 -88 -221q-72 -63 -193 -63q-103 0 -174 81q-70 82 -70 203v484h-229v-508z" />
<glyph unicode="v" horiz-adv-x="1069" d="M-53 1065h391l227 -455l203 455h350l-561 -1159zM47 1004l508 -961l465 961h-213l-240 -539l-268 539h-252z" />
<glyph unicode="w" horiz-adv-x="1538" d="M-53 1065h391l229 -457l60 129l-154 328h346l217 -453l199 453h354l-563 -1161l-233 487l-232 -485zM49 1004l508 -961l236 489l233 -487l465 959h-215l-236 -539l-260 539h-209l123 -267l-127 -270l-266 537h-252z" />
<glyph unicode="x" horiz-adv-x="1083" d="M-51 -31l397 582l-323 514h374l146 -242l145 242h377l-326 -514l400 -582h-416l-180 279l-178 -279h-416zM66 31h264l213 331l215 -331h264l-356 520l286 453h-229l-180 -299l-181 299h-227l283 -453z" />
<glyph unicode="y" horiz-adv-x="1196" d="M-51 1065h389l278 -598l275 598h356l-739 -1589h-369l291 622zM49 1004l449 -904l-262 -563h233l682 1467h-221l-312 -682l-319 682h-250z" />
<glyph unicode="z" horiz-adv-x="980" d="M-27 -31l461 766h-377v330h936l-430 -758h402v-338h-992zM82 31h821v215h-444l430 758h-770v-207h424z" />
<glyph unicode="{" horiz-adv-x="745" d="M4 481v256h31q75 0 131.5 59.5t56.5 170.5v133q0 224 117 350q127 133 336 133h31v-278h-31q-67 0 -116.5 -53t-49.5 -152v-133q0 -212 -117 -351l-8 -8l6 -6q119 -131 119 -348v-135q0 -52 17 -96.5t55.5 -75.5t93.5 -31h31v-281h-31q-210 0 -334 136q-119 125 -119 348 v135q0 91 -49 159t-139 68h-31zM66 541q98 -12 157 -90q62 -84 62 -197v-135q0 -197 100 -309q96 -104 260 -113v160q-88 9 -141 84q-55 74 -55 178v135q0 205 -103 305l-51 49q42 35 51 49q103 142 103 310v133q0 107 55 180q53 72 141 84v156q-160 -9 -258 -115 q-102 -108 -102 -305v-133q0 -115 -62 -199q-62 -81 -157 -90v-137z" />
<glyph unicode="|" horiz-adv-x="532" d="M125 -436v1990h283v-1990h-283zM186 -375h160v1868h-160v-1868z" />
<glyph unicode="}" horiz-adv-x="745" d="M39 -84h31q55 0 93.5 31t55.5 75.5t17 96.5v135q0 218 118 348l6 6l-8 8q-116 137 -116 351v133q0 99 -49.5 152t-116.5 53h-31v278h31q209 0 336 -133q116 -125 116 -350v-133q0 -111 57 -170.5t132 -59.5h30v-256h-30q-90 0 -139.5 -68.5t-49.5 -158.5v-135 q0 -223 -119 -348q-124 -136 -333 -136h-31v281zM100 -143v-160q164 9 260 113q101 113 101 309v135q0 114 61 197q59 77 158 90v137q-96 9 -158 90q-61 83 -61 199v133q0 196 -103 305q-98 106 -258 115v-156q89 -12 142 -84q55 -73 55 -180v-133q0 -170 102 -310 q8 -13 52 -49l-52 -49q-102 -99 -102 -305v-135q0 -104 -55 -178q-53 -75 -142 -84z" />
<glyph unicode="~" horiz-adv-x="1742" d="M354 1810l21 25q75 91 158 131.5t192 40.5q70 0 166 -41q80 -33 113 -33q45 0 100 64l18 22l254 -182l-20 -27q-65 -84 -133 -129q-86 -59 -185 -59q-48 0 -135 42t-135 42q-39 0 -68.5 -13.5t-76.5 -52.5l-19 -16zM442 1821l160 -119q41 32 70 47q46 18 96 18 q53 0 137 -41q80 -43 133 -43q78 0 152 50q54 38 98 90l-158 114q-62 -65 -126 -65q-48 0 -136 37q-93 37 -143 37q-88 0 -155 -29.5t-128 -95.5z" />
<glyph unicode="&#xa1;" horiz-adv-x="493" d="M57 1397q0 77 54 131q52 55 137 55q79 0 133.5 -54t54.5 -132q0 -80 -54.5 -134.5t-133.5 -54.5q-81 0 -136 54.5t-55 134.5zM82 -31v1106h330v-1106h-330zM119 1397q0 -56 36 -91.5t93 -35.5q55 0 92 37q35 35 35 90q0 53 -35 88q-37 37 -92 37q-57 0 -94 -37 q-35 -35 -35 -88zM143 31h207v983h-207v-983z" />
<glyph unicode="&#xa2;" horiz-adv-x="1755" d="M61 762q0 148 51.5 286.5t147.5 251.5q92 106 213.5 175t257.5 94v153h283v-149q163 -29 313 -123q155 -102 248 -252l14 -24l-297 -211l-18 26q-74 112 -182 172q-101 58 -215 58q-179 0 -304 -134q-124 -133 -124 -323q0 -189 124 -322q125 -131 304 -131 q158 0 282 105q125 109 152 266l4 25h381l-2 -35q-16 -141 -76 -262q-56 -116 -156 -220q-90 -93 -215 -157q-110 -55 -233 -76v-160h-283v162q-137 25 -258 93t-213 173q-96 113 -147.5 252t-51.5 287zM123 762q0 -138 47.5 -266.5t136.5 -231.5q184 -211 459 -250l27 -4 v-153h159v151l27 4q127 15 242 74q106 53 198 145q88 91 144 203q47 100 65 209h-262q-38 -164 -168 -276q-141 -119 -321 -119q-100 0 -191 38.5t-158 110.5q-141 150 -141 365q0 216 141 366q143 152 349 152q126 0 243 -63q114 -65 187 -168l200 141q-83 124 -213 209 q-149 93 -315 117l-27 4v141h-159v-145l-27 -5q-133 -19 -251 -83t-208 -166q-89 -104 -136.5 -233t-47.5 -267z" />
<glyph unicode="&#xa3;" horiz-adv-x="1310" d="M76 -31v348h127v250h-127v351h127v145q0 107 43 204t123 169q74 68 174 106q95 39 205 39q283 0 471 -235l18 -25l-297 -217l-18 24q-36 45 -77 65.5t-97 20.5q-67 0 -117.5 -45.5t-50.5 -105.5v-145h247v-351h-247v-250h213q60 0 103.5 23.5t80.5 75.5l16 24l289 -211 l-18 -24q-189 -236 -471 -236h-717zM137 31h656q238 0 401 186l-186 137q-43 -49 -88 -71q-56 -27 -127 -27h-275v373h248v227h-248v207q0 85 70 149q71 64 160 64q126 0 202 -88l199 145q-164 187 -401 187q-94 0 -182 -33.5t-156 -95.5q-146 -134 -146 -328v-207h-127 v-227h127v-373h-127v-225z" />
<glyph unicode="&#xa4;" horiz-adv-x="1335" d="M59 346l119 119q-51 114 -51 231q0 127 53 236l-121 119l260 260l121 -123q106 47 226 47q122 0 229 -49l125 125l258 -260l-123 -123q49 -107 49 -232q0 -120 -49 -227l123 -123l-258 -254l-119 119q-112 -53 -233 -53q-120 0 -234 51l-115 -117zM147 348l170 -168 l107 105l18 -11q104 -55 226 -55q118 0 223 57l20 11l109 -109l170 168l-111 113l11 18q53 103 53 219q0 126 -53 226l-11 18l111 111l-170 172l-113 -113l-18 10q-102 54 -223 54q-119 0 -220 -52l-20 -10l-109 111l-170 -172l109 -109l-10 -20q-58 -103 -58 -226 q0 -117 56 -223l10 -18zM387 696q0 118 84 205q81 84 195 84q116 0 194 -84q80 -86 80 -205t-78 -200q-80 -86 -194 -86t-197 86q-84 84 -84 200zM449 696q0 -89 65 -157q68 -68 154 -68t149 66q62 65 62 159q0 95 -64 162q-60 66 -149 66q-88 0 -152.5 -67.5t-64.5 -160.5z " />
<glyph unicode="&#xa5;" horiz-adv-x="1585" d="M-57 1556h438l434 -686l430 686h400l-619 -950h256v-325h-291v-312h-377v312h-292v325h241zM55 1495l621 -950h-293v-203h293v-311h254v311h291v203h-308l619 950h-252l-463 -739l-471 739h-291z" />
<glyph unicode="&#xa6;" horiz-adv-x="532" d="M135 -395v895h271v-895h-271zM135 618v895h271v-895h-271zM197 -334h147v772h-147v-772zM197 680h147v772h-147v-772z" />
<glyph unicode="&#xa7;" horiz-adv-x="1146" d="M92 1249q0 185 139 318q66 62 151 95.5t175 33.5q190 0 321.5 -140.5t131.5 -343.5v-30h-305v30q0 72 -44 124.5t-104 52.5q-65 0 -106 -41q-39 -42 -39 -99t45.5 -100t105.5 -43q199 0 336 -137q139 -139 139 -334q0 -184 -123 -313q123 -132 123 -295q0 -187 -139 -320 q-65 -61 -147 -96q-87 -35 -181 -35q-189 0 -319 139q-131 140 -131 344v31h303v-31q0 -69 45 -121.5t102 -52.5q68 0 109 41q37 37 37 101q0 53 -43 96q-49 43 -111 43q-190 0 -330 137q-66 66 -101.5 152t-35.5 180q0 177 117 313q-121 127 -121 301zM154 1249 q0 -76 32 -151q28 -66 90 -125l23 -23l-23 -22q-57 -57 -87.5 -134t-30.5 -159q0 -168 121 -289q119 -119 284 -119q88 0 152 -61q63 -57 63 -139q0 -89 -55 -144q-59 -59 -152 -59q-75 0 -135 60t-71 145h-181q9 -161 113 -271q111 -120 274 -120q167 0 287 114 q119 113 119 275q0 150 -125 272l-23 23l23 22q125 113 125 291q0 173 -119 289q-120 120 -295 120q-82 0 -147 62q-66 63 -66 143q0 84 58 142q56 59 149 59q89 0 150 -74q50 -56 59 -133h182q-9 159 -114 270q-112 121 -277 121t-283 -112q-120 -114 -120 -273zM356 635 q0 91 64 158t147 67q90 0 154 -67q59 -65 59 -158q0 -92 -57 -158q-60 -69 -152 -69q-88 0 -151 69q-64 64 -64 158zM418 635q0 -67 45.5 -116.5t107.5 -49.5q65 0 105 49q43 46 43 117t-43 117q-44 47 -109 47q-59 0 -104 -49t-45 -115z" />
<glyph unicode="&#xa8;" horiz-adv-x="1492" d="M305 1780q0 67 46 112t112 45q70 0 115 -44t45 -113q0 -70 -45 -115q-44 -47 -115 -47q-66 0 -111 45q-47 47 -47 117zM367 1780q0 -43 27.5 -72t68.5 -29q44 0 71 29t27 72q0 44 -27 70t-71 26q-42 0 -69 -27t-27 -69zM840 1780q0 70 47 114q43 43 108 43q72 0 115 -43 q47 -44 47 -114t-47 -117q-45 -45 -115 -45q-66 0 -110.5 46.5t-44.5 115.5zM901 1780q0 -45 29 -74q30 -27 65 -27q44 0 72.5 29t28.5 72t-28.5 69.5t-72.5 26.5q-37 0 -65 -25q-29 -29 -29 -71z" />
<glyph unicode="&#xa9;" horiz-adv-x="1763" d="M61 764q0 167 64 319q63 147 176 260q114 114 260 175q151 65 320 65q168 0 319 -65q150 -63 262 -175q110 -110 174 -260q66 -157 66 -319q0 -167 -66 -320q-63 -151 -174 -262q-115 -112 -260 -174q-154 -65 -319 -65q-168 0 -322 65q-145 62 -260 174 q-114 114 -176 262q-64 149 -64 320zM123 764q0 -153 57 -291.5t164 -245.5t247 -165t292 -58t290 57.5t246 165.5q103 103 162 242t59 295q0 152 -57.5 290t-163.5 244q-108 108 -247 166t-291 58q-151 0 -290 -58t-247 -164q-107 -107 -164 -245.5t-57 -290.5zM283 764 q0 126 44.5 239t127.5 201q85 89 195 137t231 48q120 0 230 -48t196 -137q84 -87 129 -201t45 -239q0 -172 -79 -316t-216.5 -226.5t-302.5 -82.5q-254 0 -428 180q-83 88 -127.5 202.5t-44.5 242.5zM344 764q0 -115 40.5 -219.5t115.5 -182.5t174 -119.5t209 -41.5 q148 0 271.5 74.5t194 204t70.5 284.5q0 113 -40.5 216.5t-116.5 182.5q-77 78 -175.5 121t-205.5 43q-108 0 -207 -43t-174 -121q-75 -80 -115.5 -182.5t-40.5 -216.5zM446 758q0 182 129 311q128 131 312 131q112 0 214 -56t165 -153l14 -24l-211 -152l-16 25 q-43 60 -81.5 82t-84.5 22q-74 0 -123 -55q-51 -54 -51 -131t51 -131q50 -56 123 -56q56 0 106 41q51 45 66 105l8 22h264l-2 -34q-24 -164 -143 -277q-125 -113 -299 -113q-186 0 -312 129q-129 129 -129 314zM508 758q0 -161 110 -271t269 -110q148 0 258 96 q90 83 117 205h-150q-28 -74 -90.5 -121t-134.5 -47q-97 0 -168 74q-68 74 -68 174t68 174q71 74 168 74q60 0 106 -24.5t90 -80.5l113 80q-56 74 -137.5 116t-171.5 42q-156 0 -269 -113q-110 -113 -110 -268z" />
<glyph unicode="&#xaa;" horiz-adv-x="1034" d="M20 666l498 942l494 -942h-301l-54 104h-295l-49 -104h-293zM41 281v280h952v-280h-952zM102 342h830v158h-830v-158zM123 727h151l50 104h370l54 -104h161l-391 750zM383 958l127 256l125 -256h-252zM463 1010h92l-45 94z" />
<glyph unicode="&#xab;" horiz-adv-x="1492" d="M-10 762l690 592l166 -240l-422 -352l422 -350l-166 -240zM84 762l584 -498l94 137l-434 361l434 362l-94 138zM612 762l691 592l165 -240l-421 -352l421 -350l-165 -240zM707 762l583 -498l94 137l-434 361l434 362l-94 138z" />
<glyph unicode="&#xac;" horiz-adv-x="1040" d="M10 705v268h1014v-463h-268v195h-746zM72 766h745v-195h146v340h-891v-145z" />
<glyph unicode="&#xad;" horiz-adv-x="808" d="M76 485v289h657v-289h-657zM137 547h535v166h-535v-166z" />
<glyph unicode="&#xae;" horiz-adv-x="1763" d="M61 764q0 167 64 319q63 147 176 260q114 114 260 175q151 65 320 65q168 0 319 -65q150 -63 262 -175q110 -110 174 -260q66 -157 66 -319q0 -167 -66 -320q-63 -151 -174 -262q-115 -112 -260 -174q-154 -65 -319 -65q-168 0 -322 65q-145 62 -260 174 q-114 114 -176 262q-64 149 -64 320zM123 764q0 -153 57 -291.5t164 -245.5t247 -165t292 -58t290 57.5t246 165.5q103 103 162 242t59 295q0 152 -57.5 290t-163.5 244q-108 108 -247 166t-291 58q-151 0 -290 -58t-247 -164q-107 -107 -164 -245.5t-57 -290.5zM283 764 q0 126 44.5 239t127.5 201q85 89 195 137t231 48q120 0 230 -48t196 -137q84 -87 129 -201t45 -239q0 -172 -79 -316t-216.5 -226.5t-302.5 -82.5q-254 0 -428 180q-83 88 -127.5 202.5t-44.5 242.5zM344 764q0 -115 40.5 -219.5t115.5 -182.5t174 -119.5t209 -41.5 q114 0 214 44.5t173 125.5h-312l-118 123v-123h-254v821h297q151 0 250 -96q104 -96 104 -240q0 -81 -35.5 -155t-97.5 -121l182 -191q133 159 133 375q0 113 -40.5 216.5t-116.5 182.5q-77 78 -175.5 121t-205.5 43q-108 0 -207 -43t-174 -121q-75 -80 -115.5 -182.5 t-40.5 -216.5zM647 432h131v123h86l119 -123h176l-151 158l32 20q62 37 99 104t37 142q0 116 -84 197q-83 77 -209 77h-236v-698zM778 674v340h96q72 0 117 -47t45 -123q0 -80 -53 -127q-49 -43 -137 -43h-68zM840 735h8q59 0 96 29q31 25 31 80q0 13 -3 28t-12.5 35 t-31.5 32.5t-54 12.5h-34v-217z" />
<glyph unicode="&#xaf;" horiz-adv-x="1734" d="M410 1649v336h907v-336h-907zM471 1710h784v213h-784v-213z" />
<glyph unicode="&#xb0;" horiz-adv-x="712" d="M68 1313q0 115 77 192q75 78 187 78q114 0 190 -76q80 -80 80 -194q0 -108 -79 -185t-191 -77q-107 0 -187 77q-77 74 -77 185zM129 1313q0 -83 59 -142q62 -59 144 -59q86 0 147.5 59t61.5 142q0 89 -60.5 149t-148.5 60q-84 0 -144 -60q-59 -59 -59 -149zM240 1313 q0 43 26 70.5t66 27.5t65 -27t25 -71q0 -38 -26 -65t-64 -27t-65 27.5t-27 64.5zM301 1313q0 -12 9.5 -21.5t21.5 -9.5q11 0 19.5 7.5t8.5 23.5q0 37 -28 37q-31 0 -31 -37z" />
<glyph unicode="&#xb1;" horiz-adv-x="1275" d="M111 51v291h1054v-291h-1054zM111 817v291h381v383h292v-383h381v-291h-381v-381h-292v381h-381zM172 113h932v168h-932v-168zM172 879h381v-381h170v381h381v168h-381v383h-170v-383h-381v-168z" />
<glyph unicode="&#xb2;" horiz-adv-x="589" d="M-41 666l236 378q-79 30 -127 97t-48 151q0 112 78 193q77 86 195 86q114 0 195 -82t81 -197q0 -73 -45 -147l-143 -238h223v-241h-645zM70 727h473v119h-271l199 330q37 61 37 116q0 91 -63 154t-152 63q-91 0 -150 -65q-61 -64 -61 -152q0 -75 45 -129q44 -53 121 -69 l43 -9zM199 1288q0 41 28.5 69.5t69.5 28.5q40 0 69 -28.5t29 -69.5q0 -40 -29 -69t-69 -29q-41 0 -69.5 29t-28.5 69zM260 1288q0 -14 11 -25.5t26 -11.5t26 11.5t11 25.5q0 15 -11 26t-26 11t-26 -11t-11 -26z" />
<glyph unicode="&#xb3;" horiz-adv-x="616" d="M-16 831l211 150l16 -29q25 -45 65 -45q24 0 43 20t19 48q0 30 -18.5 47.5t-43.5 17.5h-198l143 279h-170v237h561l-161 -307q57 -33 102 -98q45 -68 45 -166q0 -140 -92 -235q-95 -95 -230 -95q-76 0 -149.5 40.5t-124.5 111.5zM72 817q42 -46 95.5 -73t108.5 -27 q109 0 185 76q76 79 76 192q0 73 -37 132t-103 93l-28 15l143 270h-399v-115h209l-144 -278h98q49 0 86 -35t37 -92q0 -55 -37 -92t-86 -37q-55 0 -98 49z" />
<glyph unicode="&#xb4;" horiz-adv-x="1865" d="M664 1624l288 457l244 -174l-184 -283h-348zM776 1686h201l135 206l-141 101z" />
<glyph unicode="&#xb5;" horiz-adv-x="1253" d="M92 -524v1589h328v-582q0 -88 53 -148.5t129 -60.5q85 0 152 64q67 67 67 158v569h326v-1096h-326v41q-105 -63 -258 -63q-68 0 -143 30v-501h-328zM154 -463h204v545l48 -29q73 -45 157 -45q215 0 320 146v-123h202v973h-202v-508q0 -118 -86 -201q-85 -82 -195 -82 q-100 0 -172 78t-72 192v521h-204v-1467z" />
<glyph unicode="&#xb6;" horiz-adv-x="1415" d="M39 989q0 154 76.5 284.5t207 206.5t283.5 76h740v-239h-144v-1348h-239v1348h-146v-1348h-242v449q-106 2 -203.5 45.5t-172.5 122.5q-77 80 -118.5 184t-41.5 219zM100 989q0 -209 144 -362q68 -71 155.5 -109.5t182.5 -38.5h55v-448h119v1347h268v-1347h117v1347h143 v117h-678q-209 0 -357.5 -148.5t-148.5 -357.5z" />
<glyph unicode="&#xb7;" horiz-adv-x="432" d="M53 711q0 71 45 116q44 47 117 47q71 0 117.5 -45.5t46.5 -117.5q0 -66 -47.5 -113t-116.5 -47q-68 0 -117 49q-45 48 -45 111zM115 711q0 -44 30.5 -71.5t69.5 -27.5q47 0 74 31q28 28 28 68q0 46 -28 74t-74 28q-44 0 -72 -28t-28 -74z" />
<glyph unicode="&#xb8;" horiz-adv-x="1992" d="M449 -350l237 362h365l-41 -53h270v-309h-831zM561 -289h658v187h-334l41 53h-207z" />
<glyph unicode="&#xb9;" horiz-adv-x="364" d="M-4 1319v237h352v-890h-254v653h-98zM57 1380h99v-653h131v768h-230v-115z" />
<glyph unicode="&#xba;" horiz-adv-x="960" d="M20 1110q0 192 136 328q133 133 323 133q193 0 326 -133q135 -132 135 -328q0 -92 -35 -176t-100 -148q-65 -65 -149.5 -100t-176.5 -35q-188 0 -323 135q-136 136 -136 324zM41 281v280h879v-280h-879zM82 1110q0 -164 117 -281q119 -116 280 -116q164 0 283 116 q117 117 117 281q0 168 -117 285q-114 114 -283 114q-166 0 -280 -114q-117 -117 -117 -285zM102 342h756v158h-756v-158zM256 1110q0 97 68 168q67 70 159 70q93 0 160 -70q68 -71 68 -168q0 -95 -68.5 -167.5t-159.5 -72.5t-159 72.5t-68 167.5zM317 1110q0 -67 50 -123 q52 -55 116 -55q66 0 115 55q51 54 51 123q0 72 -49 124t-117 52t-117 -52t-49 -124z" />
<glyph unicode="&#xbb;" horiz-adv-x="1492" d="M27 412l422 350l-422 352l166 240l690 -592l-690 -590zM111 401l94 -137l583 498l-583 500l-94 -138l434 -362zM649 412l422 350l-422 352l166 240l690 -592l-690 -590zM733 401l94 -137l584 498l-584 500l-94 -138l434 -362z" />
<glyph unicode="&#xbf;" horiz-adv-x="923" d="M39 412q0 161 102 288q92 111 238 154v223h330v-526h-201q-59 0 -100 -41q-39 -42 -39 -100q0 -67 38.5 -108.5t100.5 -41.5q35 0 66.5 18.5t48.5 49.5l18 30l262 -192l-16 -25q-65 -89 -162 -143q-101 -55 -217 -55q-195 0 -332 137t-137 332zM100 412q0 -170 119 -289 t289 -119q100 0 186 47q74 40 123 103l-160 116q-58 -71 -149 -71q-87 0 -143 59q-58 61 -58 152q0 82 58 143q59 59 143 59h139v404h-207v-211l-22 -6q-139 -28 -228 -137q-90 -111 -90 -250zM356 1397q0 76 52 131q55 55 137 55q79 0 133.5 -54t54.5 -132 q0 -82 -53 -135.5t-135 -53.5t-135 56q-54 54 -54 133zM418 1397q0 -55 35 -90q37 -37 92 -37q58 0 92 37q35 35 35 90q0 50 -35 88q-37 37 -92 37q-58 0 -92 -37q-35 -35 -35 -88z" />
<glyph unicode="&#xc0;" horiz-adv-x="1607" d="M-51 -31l856 1651l858 -1651h-416l-100 203h-703l-98 -203h-397zM51 31h258l99 202h776l100 -202h277l-756 1456zM451 1907l241 174l291 -457h-348zM514 461l279 577l282 -577h-561zM535 1892l135 -206h200l-196 307zM612 522h365l-184 375z" />
<glyph unicode="&#xc1;" horiz-adv-x="1607" d="M-51 -31l856 1651l858 -1651h-416l-100 203h-703l-98 -203h-397zM51 31h258l99 202h776l100 -202h277l-756 1456zM514 461l279 577l282 -577h-561zM612 522h365l-184 375zM664 1624l288 457l244 -174l-184 -283h-348zM776 1686h201l135 206l-141 101z" />
<glyph unicode="&#xc2;" horiz-adv-x="1607" d="M-51 -31l856 1651l858 -1651h-416l-100 203h-703l-98 -203h-397zM51 31h258l99 202h776l100 -202h277l-756 1456zM397 1624l402 502l403 -502h-352l-49 68l-49 -68h-355zM514 461l279 577l282 -577h-561zM526 1686h195l78 110l82 -110h192l-274 342zM612 522h365 l-184 375z" />
<glyph unicode="&#xc3;" horiz-adv-x="1607" d="M-51 -31l856 1651l858 -1651h-416l-100 203h-703l-98 -203h-397zM51 31h258l99 202h776l100 -202h277l-756 1456zM313 1812l21 25q75 91 158 131.5t192 40.5q70 0 166 -41q80 -33 113 -33q45 0 100 64l18 22l254 -182l-20 -27q-65 -84 -133 -129q-86 -59 -185 -59 q-11 0 -22.5 1.5t-20 3t-21.5 6t-18.5 6.5t-21 9t-18.5 8t-20.5 9.5t-18.5 9.5q-68 31 -109 31q-39 0 -68.5 -13.5t-76.5 -52.5l-19 -16zM401 1823l160 -119q41 32 70 47q47 18 96 18q55 0 137 -40q80 -43 133 -43q79 0 152 49q54 38 98 90l-157 114q-62 -65 -127 -65 q-48 0 -136 37q-92 37 -143 37q-88 0 -155 -29.5t-128 -95.5zM514 461l279 577l282 -577h-561zM612 522h365l-184 375z" />
<glyph unicode="&#xc4;" horiz-adv-x="1607" d="M-51 -31l856 1651l858 -1651h-416l-100 203h-703l-98 -203h-397zM51 31h258l99 202h776l100 -202h277l-756 1456zM367 1780q0 67 45.5 112t111.5 45q70 0 115 -44t45 -113q0 -70 -45 -115q-44 -47 -115 -47q-65 0 -110 45q-47 47 -47 117zM428 1780q0 -43 27.5 -72 t68.5 -29q44 0 71.5 29t27.5 72q0 44 -27 70t-72 26q-42 0 -69 -27t-27 -69zM514 461l279 577l282 -577h-561zM612 522h365l-184 375zM901 1780q0 70 47 114q43 43 109 43q71 0 114 -43q48 -45 48 -114t-48 -117q-45 -45 -114 -45q-66 0 -111 46.5t-45 115.5zM963 1780 q0 -46 28 -74q30 -27 66 -27q44 0 72 29t28 72t-28 69.5t-72 26.5q-38 0 -66 -25q-28 -28 -28 -71z" />
<glyph unicode="&#xc5;" horiz-adv-x="1607" d="M-51 -31l852 1645q-101 0 -178 74q-76 76 -76 178q0 110 76 186t178 76q110 0 186 -76t76 -186q0 -103 -74.5 -177t-181.5 -75l856 -1645h-416l-100 203h-703l-98 -203h-397zM51 31h258l99 202h776l100 -202h277l-756 1456zM514 461l279 577l282 -577h-561zM608 1866 q0 -78 57.5 -134.5t135.5 -56.5q83 0 141.5 56.5t58.5 134.5q0 86 -57 143t-143 57q-78 0 -135 -57q-58 -61 -58 -143zM612 522h365l-184 375zM713 1866q0 40 25.5 68t62.5 28q40 0 64 -26.5t24 -69.5q0 -38 -25 -64t-63 -26q-34 0 -61 27t-27 63zM774 1866q0 -10 9 -19.5 t18 -9.5q26 0 26 29q0 35 -26 35q-11 0 -19 -10t-8 -25z" />
<glyph unicode="&#xc6;" horiz-adv-x="2301" d="M-51 -31l854 1651l430 -825v761h870v-348h-493v-223h575v-346h-575v-322h631v-348h-996l-100 203h-701l-98 -203h-397zM49 31h258l99 202h778l100 -202h895v225h-631v444h576v224h-576v346h494v225h-748v-952l-491 944zM514 461l277 577l284 -577h-561zM610 522h365 l-182 375z" />
<glyph unicode="&#xc7;" horiz-adv-x="1755" d="M61 760q0 170 64 319q63 151 174 262q111 114 258 177t317 63q225 0 408 -104q184 -103 293 -281l14 -25l-297 -210l-18 26q-70 108 -182 174q-103 56 -215 56q-178 0 -304 -132q-124 -133 -124 -325q0 -190 124 -320q124 -133 304 -133q158 0 282 105q125 109 152 266 l4 24h381l-2 -32q-31 -263 -214 -461.5t-442 -251.5h228v-309h-834l217 327q-99 27 -209 95q-116 75 -200 178q-84 106 -131 237q-48 136 -48 275zM123 760q0 -132 43 -254q44 -120 123 -219q160 -204 416 -262l43 -11l-201 -305h657v187h-336l88 112h13q250 31 434.5 208 t224.5 425h-262q-39 -167 -168 -274q-140 -121 -321 -121q-204 0 -349 151q-68 72 -104.5 166t-36.5 197q0 219 141 366q143 152 349 152q130 0 243 -64q111 -60 187 -167l200 141q-103 149 -256 235q-177 97 -377 97q-151 0 -288.5 -57.5t-243.5 -164.5t-162.5 -246 t-56.5 -292z" />
<glyph unicode="&#xc8;" horiz-adv-x="1193" d="M125 -31v1587h872v-348h-493v-223h573v-346h-573v-322h629v-348h-1008zM186 31h885v225h-629v444h574v224h-574v346h494v225h-750v-1464zM266 1907l242 174l291 -457h-348zM350 1892l135 -206h201l-197 307z" />
<glyph unicode="&#xc9;" horiz-adv-x="1193" d="M125 -31v1587h872v-348h-493v-223h573v-346h-573v-322h629v-348h-1008zM186 31h885v225h-629v444h574v224h-574v346h494v225h-750v-1464zM383 1624l289 457l243 -174l-184 -283h-348zM496 1686h200l135 206l-141 101z" />
<glyph unicode="&#xca;" horiz-adv-x="1193" d="M125 -31v1587h872v-348h-493v-223h573v-346h-573v-322h629v-348h-1008zM150 1624l401 502l403 -502h-352l-49 68l-49 -68h-354zM186 31h885v225h-629v444h574v224h-574v346h494v225h-750v-1464zM279 1686h194l78 110l82 -110h192l-274 342z" />
<glyph unicode="&#xcb;" horiz-adv-x="1193" d="M125 -31v1587h872v-348h-493v-223h573v-346h-573v-322h629v-348h-1008zM160 1780q0 67 45.5 112t111.5 45q70 0 115 -44t45 -113q0 -70 -45 -115q-44 -47 -115 -47q-65 0 -110 45q-47 47 -47 117zM186 31h885v225h-629v444h574v224h-574v346h494v225h-750v-1464z M221 1780q0 -43 27.5 -72t68.5 -29q44 0 71.5 29t27.5 72q0 44 -27 70t-72 26q-42 0 -69 -27t-27 -69zM694 1780q0 70 47 114q43 43 109 43q72 0 115 -43q47 -44 47 -114t-47 -117q-45 -45 -115 -45q-66 0 -111 46.5t-45 115.5zM756 1780q0 -46 28 -74q30 -27 66 -27 q44 0 72 29t28 72t-28 69.5t-72 26.5q-38 0 -66 -25q-28 -28 -28 -71z" />
<glyph unicode="&#xcc;" horiz-adv-x="628" d="M-45 1907l242 174l290 -457h-348zM39 1892l135 -206h201l-197 307zM125 -31v1587h379v-1587h-379zM186 31h256v1464h-256v-1464z" />
<glyph unicode="&#xcd;" horiz-adv-x="628" d="M125 -31v1587h379v-1587h-379zM141 1624l289 457l244 -174l-185 -283h-348zM186 31h256v1464h-256v-1464zM254 1686h201l135 206l-141 101z" />
<glyph unicode="&#xce;" horiz-adv-x="628" d="M-90 1624l401 502l404 -502h-353l-49 68l-49 -68h-354zM39 1686h194l78 110l82 -110h193l-275 342zM125 -31v1587h379v-1587h-379zM186 31h256v1464h-256v-1464z" />
<glyph unicode="&#xcf;" horiz-adv-x="628" d="M-123 1780q0 67 46 112t112 45q70 0 115 -44t45 -113q0 -70 -45 -115q-44 -47 -115 -47q-66 0 -111 45q-47 47 -47 117zM-61 1780q0 -43 27.5 -72t68.5 -29q44 0 71 29t27 72q0 44 -27 70t-71 26q-42 0 -69 -27t-27 -69zM125 -31v1587h379v-1587h-379zM186 31h256v1464 h-256v-1464zM412 1780q0 70 47 114q43 43 108 43q72 0 115 -43q47 -44 47 -114t-47 -117q-45 -45 -115 -45q-66 0 -110.5 46.5t-44.5 115.5zM473 1780q0 -45 29 -74q30 -27 65 -27q44 0 72.5 29t28.5 72t-28.5 69.5t-72.5 26.5q-37 0 -65 -25q-29 -29 -29 -71z" />
<glyph unicode="&#xd0;" horiz-adv-x="1665" d="M53 567v351h72v638h649q167 0 318 -58.5t268 -168.5q118 -110 181 -256t63 -309q0 -164 -62.5 -310t-181.5 -259q-116 -109 -267 -167.5t-317 -58.5h-651v598h-72zM115 629h71v-598h590q156 0 295.5 54t245.5 155q109 103 167 238t58 286q0 150 -58 284.5t-167 237.5 q-107 101 -247.5 155t-295.5 54h-588v-639h-71v-227zM442 256v373h318v227h-318v414h332q102 0 195 -37.5t164 -106.5q145 -142 145 -362q0 -218 -145 -363t-357 -145h-334zM504 317h272q187 0 314 127t127 320q0 192 -127 319q-128 125 -316 125h-270v-290h317v-351h-317 v-250z" />
<glyph unicode="&#xd1;" horiz-adv-x="1714" d="M125 -31v1653l1085 -911v845h379v-1648l-1085 903v-842h-379zM186 31h256v911l1086 -903v1456h-256v-917l-1086 911v-1458zM338 1812l20 25q74 89 160 131q81 41 191 41q49 0 140 -37t140 -37q43 0 101 64l18 22l250 -182l-19 -24q-140 -191 -315 -191q-47 0 -134.5 42 t-135.5 42q-40 0 -70.5 -13.5t-75.5 -52.5l-20 -16zM428 1823l158 -119q45 36 71 47q43 18 97 18q51 0 137 -40q77 -43 133 -43q131 0 248 139l-156 112q-66 -63 -127 -63q-49 0 -137 37t-143 37q-88 0 -153.5 -29.5t-127.5 -95.5z" />
<glyph unicode="&#xd2;" horiz-adv-x="1763" d="M61 764q0 160 64 319q63 147 176 260q114 114 260 175q151 65 320 65q168 0 319 -65q150 -63 262 -175q110 -110 174 -260q66 -157 66 -319q0 -167 -66 -320q-63 -151 -174 -262q-115 -112 -260 -174q-154 -65 -319 -65q-169 0 -320 65q-146 61 -262 174 q-114 114 -176 262q-64 156 -64 320zM123 764q0 -153 57 -291.5t164 -245.5t247 -165t292 -58t290 57.5t246 165.5q103 103 162 242t59 295q0 152 -57.5 290t-163.5 246q-107 107 -246.5 164.5t-291.5 57.5t-291 -57.5t-246 -164.5t-164 -245.5t-57 -290.5zM387 764 q0 103 36.5 197.5t104.5 166.5q70 73 161.5 112.5t191.5 39.5q206 0 352 -152q143 -152 143 -364q0 -104 -37 -199.5t-106 -167.5t-159.5 -110.5t-190.5 -38.5q-101 0 -192.5 38.5t-160.5 110.5t-106 167.5t-37 199.5zM449 764q0 -194 124 -324q128 -131 310 -131 q180 0 305 131q61 63 94 147t33 177q0 188 -127 321q-128 134 -307 134q-180 0 -308 -134q-124 -130 -124 -321zM496 1907l241 174l291 -457h-348zM580 1892l135 -206h200l-196 307z" />
<glyph unicode="&#xd3;" horiz-adv-x="1763" d="M61 764q0 160 64 319q63 147 176 260q114 114 260 175q151 65 320 65q168 0 319 -65q150 -63 262 -175q110 -110 174 -260q66 -157 66 -319q0 -167 -66 -320q-63 -151 -174 -262q-115 -112 -260 -174q-154 -65 -319 -65q-169 0 -320 65q-146 61 -262 174 q-114 114 -176 262q-64 156 -64 320zM123 764q0 -153 57 -291.5t164 -245.5t247 -165t292 -58t290 57.5t246 165.5q103 103 162 242t59 295q0 152 -57.5 290t-163.5 246q-107 107 -246.5 164.5t-291.5 57.5t-291 -57.5t-246 -164.5t-164 -245.5t-57 -290.5zM387 764 q0 103 36.5 197.5t104.5 166.5q70 73 161.5 112.5t191.5 39.5q206 0 352 -152q143 -152 143 -364q0 -104 -37 -199.5t-106 -167.5t-159.5 -110.5t-190.5 -38.5q-101 0 -192.5 38.5t-160.5 110.5t-106 167.5t-37 199.5zM449 764q0 -194 124 -324q128 -131 310 -131 q180 0 305 131q61 63 94 147t33 177q0 188 -127 321q-128 134 -307 134q-180 0 -308 -134q-124 -130 -124 -321zM623 1624l288 457l244 -174l-184 -283h-348zM735 1686h201l135 206l-141 101z" />
<glyph unicode="&#xd4;" horiz-adv-x="1763" d="M61 764q0 160 64 319q63 147 176 260q114 114 260 175q151 65 320 65q168 0 319 -65q150 -63 262 -175q110 -110 174 -260q66 -157 66 -319q0 -167 -66 -320q-63 -151 -174 -262q-115 -112 -260 -174q-154 -65 -319 -65q-169 0 -320 65q-146 61 -262 174 q-114 114 -176 262q-64 156 -64 320zM123 764q0 -153 57 -291.5t164 -245.5t247 -165t292 -58t290 57.5t246 165.5q103 103 162 242t59 295q0 152 -57.5 290t-163.5 246q-107 107 -246.5 164.5t-291.5 57.5t-291 -57.5t-246 -164.5t-164 -245.5t-57 -290.5zM387 764 q0 103 36.5 197.5t104.5 166.5q70 73 161.5 112.5t191.5 39.5q206 0 352 -152q143 -152 143 -364q0 -104 -37 -199.5t-106 -167.5t-159.5 -110.5t-190.5 -38.5q-101 0 -192.5 38.5t-160.5 110.5t-106 167.5t-37 199.5zM449 764q0 -194 124 -324q128 -131 310 -131 q180 0 305 131q61 63 94 147t33 177q0 188 -127 321q-128 134 -307 134q-180 0 -308 -134q-124 -130 -124 -321zM479 1624l402 502l403 -502h-352l-49 68l-49 -68h-355zM608 1686h195l78 110l82 -110h192l-274 342z" />
<glyph unicode="&#xd5;" horiz-adv-x="1763" d="M61 764q0 160 64 319q63 147 176 260q114 114 260 175q151 65 320 65q168 0 319 -65q150 -63 262 -175q110 -110 174 -260q66 -157 66 -319q0 -167 -66 -320q-63 -151 -174 -262q-115 -112 -260 -174q-154 -65 -319 -65q-169 0 -320 65q-146 61 -262 174 q-114 114 -176 262q-64 156 -64 320zM123 764q0 -153 57 -291.5t164 -245.5t247 -165t292 -58t290 57.5t246 165.5q103 103 162 242t59 295q0 152 -57.5 290t-163.5 246q-107 107 -246.5 164.5t-291.5 57.5t-291 -57.5t-246 -164.5t-164 -245.5t-57 -290.5zM387 764 q0 103 36.5 197.5t104.5 166.5q70 73 161.5 112.5t191.5 39.5q206 0 352 -152q143 -152 143 -364q0 -104 -37 -199.5t-106 -167.5t-159.5 -110.5t-190.5 -38.5q-101 0 -192.5 38.5t-160.5 110.5t-106 167.5t-37 199.5zM426 1812l20 25q75 90 158.5 131t192.5 41 q70 0 166 -41q80 -33 112 -33q46 0 101 64l18 22l254 -182l-21 -27q-65 -84 -133 -129q-86 -59 -184 -59q-27 0 -59 9.5t-45.5 15.5t-53.5 26q-72 33 -112 33q-39 0 -69.5 -13.5t-76.5 -52.5l-18 -16zM449 764q0 -194 124 -324q128 -131 310 -131q180 0 305 131 q61 63 94 147t33 177q0 188 -127 321q-128 134 -307 134q-180 0 -308 -134q-124 -130 -124 -321zM514 1823l160 -119q43 34 69 47q46 18 97 18q55 0 137 -40q80 -43 133 -43q79 0 152 49q54 38 98 90l-158 114q-62 -65 -127 -65q-47 0 -135 37q-92 37 -143 37 q-88 0 -155 -29.5t-128 -95.5z" />
<glyph unicode="&#xd6;" horiz-adv-x="1763" d="M61 764q0 160 64 319q63 147 176 260q114 114 260 175q151 65 320 65q168 0 319 -65q150 -63 262 -175q110 -110 174 -260q66 -157 66 -319q0 -167 -66 -320q-63 -151 -174 -262q-115 -112 -260 -174q-154 -65 -319 -65q-169 0 -320 65q-146 61 -262 174 q-114 114 -176 262q-64 156 -64 320zM123 764q0 -153 57 -291.5t164 -245.5t247 -165t292 -58t290 57.5t246 165.5q103 103 162 242t59 295q0 152 -57.5 290t-163.5 246q-107 107 -246.5 164.5t-291.5 57.5t-291 -57.5t-246 -164.5t-164 -245.5t-57 -290.5zM387 764 q0 103 36.5 197.5t104.5 166.5q70 73 161.5 112.5t191.5 39.5q206 0 352 -152q143 -152 143 -364q0 -104 -37 -199.5t-106 -167.5t-159.5 -110.5t-190.5 -38.5q-101 0 -192.5 38.5t-160.5 110.5t-106 167.5t-37 199.5zM449 764q0 -194 124 -324q128 -131 310 -131 q180 0 305 131q61 63 94 147t33 177q0 188 -127 321q-128 134 -307 134q-180 0 -308 -134q-124 -130 -124 -321zM461 1780q0 67 45.5 112t111.5 45q70 0 115 -44t45 -113q0 -70 -45 -115q-44 -47 -115 -47q-65 0 -110 45q-47 47 -47 117zM522 1780q0 -43 27.5 -72t68.5 -29 q44 0 71.5 29t27.5 72q0 44 -27 70t-72 26q-42 0 -69 -27t-27 -69zM995 1780q0 70 47 114q43 43 109 43q72 0 115 -43q47 -44 47 -114t-47 -117q-45 -45 -115 -45q-66 0 -111 46.5t-45 115.5zM1057 1780q0 -46 28 -74q30 -27 66 -27q44 0 72 29t28 72t-28 69.5t-72 26.5 q-38 0 -66 -25q-28 -28 -28 -71z" />
<glyph unicode="&#xd7;" horiz-adv-x="1058" d="M55 455l269 268l-269 268l207 207l268 -268l269 268l205 -207l-269 -268l269 -268l-205 -205l-269 268l-268 -268zM141 455l121 -119l268 268l269 -268l119 119l-269 268l269 268l-119 121l-269 -268l-268 268l-121 -121l269 -268z" />
<glyph unicode="&#xd8;" horiz-adv-x="1763" d="M61 764q0 167 64 319q63 147 176 260q114 114 260 175q151 65 320 65q171 0 333 -70l33 43h426l-180 -247q92 -102 149 -238q60 -148 60 -307q0 -167 -66 -320q-63 -151 -174 -262q-115 -112 -260 -174q-154 -65 -319 -65q-170 0 -322 63l-43 -63h-430l188 266 q-96 107 -151 240q-64 149 -64 315zM123 764q0 -159 57 -293q54 -131 160 -240l16 -18l-149 -209h278l56 80l22 -10q152 -70 320 -70q152 0 290 57.5t246 165.5q103 103 162 242t59 295q0 151 -55 285q-57 135 -153 237l-19 19l139 190h-274l-45 -59l-23 10q-155 76 -329 76 q-151 0 -290 -58t-247 -164q-107 -107 -164 -245.5t-57 -290.5zM387 764q0 103 36.5 197.5t104.5 166.5q70 73 161.5 112.5t191.5 39.5q86 0 170 -35l36 -14l-581 -813l-27 37q-92 140 -92 309zM449 764q0 -129 59 -238l483 674q-59 19 -110 19q-180 0 -308 -134 q-124 -130 -124 -321zM686 285l580 809l24 -39q86 -138 86 -291q0 -104 -37 -199.5t-106 -167.5t-159.5 -110.5t-190.5 -38.5q-87 0 -158 24zM786 319q36 -10 97 -10q180 0 305 131q61 63 94 147t33 177q0 116 -55 217z" />
<glyph unicode="&#xd9;" horiz-adv-x="1595" d="M111 707v849h378v-903q0 -169 78 -256q82 -88 234 -88q158 0 235 92q74 86 74 252v903h375v-876q0 -168 -47 -307q-46 -135 -135 -234q-187 -196 -502 -196q-167 0 -303 57q-131 56 -217 162q-170 204 -170 545zM172 707q0 -318 156 -506q80 -96 194 -144 q121 -53 279 -53q144 0 262 47q112 43 194 131q78 84 123 211q43 125 43 287v815h-252v-842q0 -185 -88 -293q-95 -112 -282 -112q-185 0 -279 108q-94 104 -94 297v842h-256v-788zM483 1907l242 174l291 -457h-348zM567 1892l135 -206h201l-196 307z" />
<glyph unicode="&#xda;" horiz-adv-x="1595" d="M111 707v849h378v-903q0 -169 78 -256q82 -88 234 -88q158 0 235 92q74 86 74 252v903h375v-876q0 -168 -47 -307q-46 -135 -135 -234q-187 -196 -502 -196q-167 0 -303 57q-131 56 -217 162q-170 204 -170 545zM172 707q0 -318 156 -506q80 -96 194 -144 q121 -53 279 -53q144 0 262 47q112 43 194 131q78 84 123 211q43 125 43 287v815h-252v-842q0 -185 -88 -293q-95 -112 -282 -112q-185 0 -279 108q-94 104 -94 297v842h-256v-788zM592 1624l289 457l243 -174l-184 -283h-348zM705 1686h200l135 206l-141 101z" />
<glyph unicode="&#xdb;" horiz-adv-x="1595" d="M111 707v849h378v-903q0 -169 78 -256q82 -88 234 -88q158 0 235 92q74 86 74 252v903h375v-876q0 -168 -47 -307q-46 -135 -135 -234q-187 -196 -502 -196q-167 0 -303 57q-131 56 -217 162q-170 204 -170 545zM172 707q0 -318 156 -506q80 -96 194 -144 q121 -53 279 -53q144 0 262 47q112 43 194 131q78 84 123 211q43 125 43 287v815h-252v-842q0 -185 -88 -293q-95 -112 -282 -112q-185 0 -279 108q-94 104 -94 297v842h-256v-788zM403 1624l402 502l403 -502h-352l-49 68l-49 -68h-355zM532 1686h195l78 110l82 -110h192 l-274 342z" />
<glyph unicode="&#xdc;" horiz-adv-x="1595" d="M111 707v849h378v-903q0 -169 78 -256q82 -88 234 -88q158 0 235 92q74 86 74 252v903h375v-876q0 -168 -47 -307q-46 -135 -135 -234q-187 -196 -502 -196q-167 0 -303 57q-131 56 -217 162q-170 204 -170 545zM172 707q0 -318 156 -506q80 -96 194 -144 q121 -53 279 -53q144 0 262 47q112 43 194 131q78 84 123 211q43 125 43 287v815h-252v-842q0 -185 -88 -293q-95 -112 -282 -112q-185 0 -279 108q-94 104 -94 297v842h-256v-788zM383 1780q0 67 46 112t112 45q70 0 114.5 -44t44.5 -113q0 -70 -45 -115q-44 -47 -114 -47 q-66 0 -111 45q-47 47 -47 117zM444 1780q0 -43 28 -72t69 -29q44 0 71 29t27 72q0 44 -27 70t-71 26q-42 0 -69.5 -27t-27.5 -69zM918 1780q0 70 47 114q43 43 108 43q72 0 115 -43q47 -44 47 -114t-47 -117q-45 -45 -115 -45q-66 0 -110.5 46.5t-44.5 115.5zM979 1780 q0 -45 29 -74q30 -27 65 -27q44 0 72.5 29t28.5 72t-28.5 69.5t-72.5 26.5q-37 0 -65 -25q-29 -29 -29 -71z" />
<glyph unicode="&#xdd;" horiz-adv-x="1585" d="M-55 1556h436l426 -720l430 720h405l-651 -1073v-514h-377v486zM53 1495l623 -1024v-440h254v469l604 995h-262l-465 -778l-461 778h-293zM672 1624l289 457l243 -174l-184 -283h-348zM784 1686h201l135 206l-141 101z" />
<glyph unicode="&#xde;" horiz-adv-x="1394" d="M125 -31v1587h387v-145h174q136 0 261 -50t220 -142q90 -90 139.5 -202.5t49.5 -228.5q0 -143 -51 -269t-146 -220q-96 -94 -223.5 -144.5t-271.5 -50.5h-152v-135h-387zM186 31h265v135h213q180 0 324 80t225 222t81 320q0 105 -44.5 206t-125.5 180q-88 85 -201 130.5 t-237 45.5h-235v145h-265v-1464zM451 391v733h225q86 0 151 -32q64 -31 111 -84q92 -106 92 -250q0 -155 -98 -258q-103 -109 -275 -109h-206zM512 453h145q145 0 232 90q80 83 80 215q0 121 -78 209q-83 96 -215 96h-164v-610z" />
<glyph unicode="&#xdf;" horiz-adv-x="2037" d="M76 567v351h119v145q0 108 43 205t124 170q74 68 175 106q98 37 204 37q125 0 224 -41q98 -39 165 -100q131 90 279 90q247 0 403 -182l23 -25l-291 -211l-18 16q-58 48 -117 48q-102 0 -102 -103q0 -37 37 -68t139 -38q205 -12 340 -144q147 -138 147 -356 q0 -107 -42 -204t-120 -171q-70 -67 -170 -110q-98 -39 -200 -39q-139 0 -260 53q-132 55 -236 172l-22 27l297 223l18 -23q44 -53 96 -78q52 -20 107 -20q66 0 110.5 42.5t44.5 102.5q0 79 -47 123q-49 46 -153 58q-206 21 -334 143q-131 122 -131 309q0 60 -52.5 99.5 t-117.5 39.5q-74 0 -127 -38q-58 -43 -58 -113v-1094h-378v598h-119zM137 629h119v-598h256v1032q0 100 82 160q71 53 164 53q92 0 157 -53q74 -61 74 -148q0 -159 111 -264q114 -108 301 -129q75 -8 127.5 -32.5t78.5 -60t37 -71t11 -76.5q0 -83 -62 -145q-64 -61 -155 -61 q-139 0 -230 98l-198 -150q88 -88 192 -133q109 -47 236 -47q91 0 178 35q86 36 149 96q144 138 144 332q0 189 -127 313q-121 115 -303 127q-115 6 -179 54q-55 43 -55 112q0 81 47 125q42 39 117 39q72 0 137 -47l197 143q-138 135 -334 135q-139 0 -262 -94l-21 -14 l-20 18q-66 66 -164 105q-93 37 -201 37q-94 0 -182 -33.5t-156 -95.5q-147 -129 -147 -328v-207h-119v-227z" />
<glyph unicode="&#xe0;" d="M39 516q0 235 158 404q74 77 172 122q102 45 209 45q117 0 221 -63v41h352v-1096h-352v37q-95 -59 -221 -59q-109 0 -208 43t-175 125q-156 170 -156 401zM100 516q0 -138 64 -255t174 -185t240 -68q191 0 282 158v-135h230v973h-230v-121q-91 143 -282 143 q-94 0 -181.5 -38.5t-154.5 -110.5q-68 -72 -105 -166t-37 -195zM334 516q0 121 80 201t192 80q114 0 191 -80q75 -78 75 -201q0 -122 -75.5 -201t-190.5 -79q-113 0 -190 77q-82 82 -82 203zM338 1427l244 175l288 -457h-348zM395 516q0 -95 62 -160q59 -59 149 -59t146 59 q59 62 59 160q0 99 -59 158q-58 61 -146 61t-149 -61q-62 -65 -62 -158zM422 1413l135 -207h201l-195 307z" />
<glyph unicode="&#xe1;" d="M39 516q0 235 158 404q74 77 172 122q102 45 209 45q117 0 221 -63v41h352v-1096h-352v37q-95 -59 -221 -59q-109 0 -208 43t-175 125q-156 170 -156 401zM100 516q0 -138 64 -255t174 -185t240 -68q191 0 282 158v-135h230v973h-230v-121q-91 143 -282 143 q-94 0 -181.5 -38.5t-154.5 -110.5q-68 -72 -105 -166t-37 -195zM334 516q0 121 80 201t192 80q114 0 191 -80q75 -78 75 -201q0 -122 -75.5 -201t-190.5 -79q-113 0 -190 77q-82 82 -82 203zM395 516q0 -95 62 -160q59 -59 149 -59t146 59q59 62 59 160q0 99 -59 158 q-58 61 -146 61t-149 -61q-62 -65 -62 -158zM440 1145l289 457l244 -175l-185 -282h-348zM553 1206h201l135 207l-141 100z" />
<glyph unicode="&#xe2;" d="M39 516q0 235 158 404q74 77 172 122q102 45 209 45q117 0 221 -63v41h352v-1096h-352v37q-95 -59 -221 -59q-109 0 -208 43t-175 125q-156 170 -156 401zM100 516q0 -138 64 -255t174 -185t240 -68q191 0 282 158v-135h230v973h-230v-121q-91 143 -282 143 q-94 0 -181.5 -38.5t-154.5 -110.5q-68 -72 -105 -166t-37 -195zM221 1145l402 502l403 -502h-352l-49 67l-50 -67h-354zM334 516q0 121 80 201t192 80q114 0 191 -80q75 -78 75 -201q0 -122 -75.5 -201t-190.5 -79q-113 0 -190 77q-82 82 -82 203zM350 1206h195l78 111 l82 -111h192l-274 342zM395 516q0 -95 62 -160q59 -59 149 -59t146 59q59 62 59 160q0 99 -59 158q-58 61 -146 61t-149 -61q-62 -65 -62 -158z" />
<glyph unicode="&#xe3;" d="M39 516q0 235 158 404q74 77 172 122q102 45 209 45q117 0 221 -63v41h352v-1096h-352v37q-95 -59 -221 -59q-109 0 -208 43t-175 125q-156 170 -156 401zM100 516q0 -138 64 -255t174 -185t240 -68q191 0 282 158v-135h230v973h-230v-121q-91 143 -282 143 q-94 0 -181.5 -38.5t-154.5 -110.5q-68 -72 -105 -166t-37 -195zM141 1333l21 25q75 91 158 131.5t192 40.5q70 0 166 -41q80 -33 113 -33q45 0 100 64l18 22l254 -182l-20 -27q-65 -84 -133 -129q-86 -59 -185 -59q-48 0 -135 42t-135 42q-39 0 -68.5 -13.5t-76.5 -52.5 l-19 -16zM229 1343l160 -118q41 32 70 47q47 18 96 18q53 0 137 -41q80 -43 133 -43q79 0 152 49q52 36 98 91l-157 114q-62 -65 -127 -65q-48 0 -136 37q-90 36 -143 36q-88 0 -155 -29.5t-128 -95.5zM334 516q0 121 80 201t192 80q114 0 191 -80q75 -78 75 -201 q0 -122 -75.5 -201t-190.5 -79q-113 0 -190 77q-82 82 -82 203zM395 516q0 -95 62 -160q59 -59 149 -59t146 59q59 62 59 160q0 99 -59 158q-58 61 -146 61t-149 -61q-62 -65 -62 -158z" />
<glyph unicode="&#xe4;" d="M39 516q0 235 158 404q74 77 172 122q102 45 209 45q117 0 221 -63v41h352v-1096h-352v37q-95 -59 -221 -59q-109 0 -208 43t-175 125q-156 170 -156 401zM100 516q0 -138 64 -255t174 -185t240 -68q191 0 282 158v-135h230v973h-230v-121q-91 143 -282 143 q-94 0 -181.5 -38.5t-154.5 -110.5q-68 -72 -105 -166t-37 -195zM207 1300q0 67 46 112.5t112 45.5q70 0 114.5 -44.5t44.5 -113.5t-45 -114q-44 -47 -114 -47q-66 0 -111 45q-47 47 -47 116zM268 1300q0 -43 28 -71.5t69 -28.5q44 0 71 28.5t27 71.5q0 44 -27 70.5 t-71 26.5q-42 0 -69.5 -27.5t-27.5 -69.5zM334 516q0 121 80 201t192 80q114 0 191 -80q75 -78 75 -201q0 -122 -75.5 -201t-190.5 -79q-113 0 -190 77q-82 82 -82 203zM395 516q0 -95 62 -160q59 -59 149 -59t146 59q59 62 59 160q0 99 -59 158q-58 61 -146 61t-149 -61 q-62 -65 -62 -158zM741 1300q0 71 47 115q43 43 109 43q72 0 115 -43q47 -44 47 -115q0 -69 -47 -116q-45 -45 -115 -45q-66 0 -111 46t-45 115zM803 1300q0 -45 28 -73q30 -27 66 -27q44 0 72 28.5t28 71.5t-28 70t-72 27q-38 0 -66 -25q-28 -28 -28 -72z" />
<glyph unicode="&#xe5;" d="M39 516q0 235 158 404q74 77 172 122q102 45 209 45q117 0 221 -63v41h352v-1096h-352v37q-95 -59 -221 -59q-109 0 -208 43t-175 125q-156 170 -156 401zM100 516q0 -138 64 -255t174 -185t240 -68q191 0 282 158v-135h230v973h-230v-121q-91 143 -282 143 q-94 0 -181.5 -38.5t-154.5 -110.5q-68 -72 -105 -166t-37 -195zM334 516q0 121 80 201t192 80q114 0 191 -80q75 -78 75 -201q0 -122 -75.5 -201t-190.5 -79q-113 0 -190 77q-82 82 -82 203zM358 1386q0 111 76 187t178 76q110 0 186 -76.5t76 -186.5q0 -104 -76.5 -177.5 t-185.5 -73.5q-102 0 -178 73q-76 76 -76 178zM395 516q0 -95 62 -160q59 -59 149 -59t146 59q59 62 59 160q0 99 -59 158q-58 61 -146 61t-149 -61q-62 -65 -62 -158zM420 1386q0 -78 57 -134t135 -56q83 0 142 56t59 134q0 87 -57 144t-144 57q-78 0 -135 -57 q-57 -60 -57 -144zM524 1386q0 40 25.5 68.5t62.5 28.5q40 0 64 -27t24 -70q0 -38 -25 -64t-63 -26q-34 0 -61 27t-27 63zM586 1386q0 -10 8.5 -19t17.5 -9q27 0 27 28q0 35 -27 35q-11 0 -18.5 -10t-7.5 -25z" />
<glyph unicode="&#xe6;" horiz-adv-x="1974" d="M39 516q0 115 43 219.5t123 184.5q167 167 401 167q111 0 193 -53v31h352v-35q41 21 78 33q76 24 162 24q194 0 350 -116q142 -108 196 -269l7 -22l-535 -383q72 0 128 25t95 94l281 -217l-17 -23q-79 -106 -207 -167.5t-276 -61.5q-95 0 -174 26q-40 12 -88 37v-41h-352 v41q-48 -30 -109.5 -46.5t-114.5 -16.5q-106 0 -204 43.5t-174 124.5q-158 172 -158 401zM100 516q0 -100 37 -192.5t105 -165.5q141 -150 333 -150q43 0 87.5 11t100.5 45t97 88v-121h230v114q101 -137 323 -137q136 0 252 55q99 45 164 123l-184 142q-80 -92 -232 -92 q-97 0 -139 40l596 429q-52 131 -166 217q-138 104 -313 104q-202 0 -301 -133v111h-230v-117q-58 84 -116.5 111.5t-137.5 27.5q-101 0 -193.5 -38.5t-162.5 -110.5q-150 -150 -150 -361zM334 516q0 121 80 201t192 80q119 0 199 -80q80 -77 80 -201v-14 q-5 -116 -83.5 -191t-195.5 -75q-113 0 -192 79q-80 80 -80 201zM395 516q0 -96 64 -160q59 -59 147 -59q94 0 154 57t63 150v12q0 95 -61 157t-156 62q-86 0 -147 -61q-64 -64 -64 -158zM1118 524q0 113 80 193t193 80q110 0 192 -82l-434 -309q-31 57 -31 118zM1180 516 q0 -10 2 -14l297 213q-39 20 -88 20q-87 0 -148 -61q-63 -63 -63 -158z" />
<glyph unicode="&#xe7;" horiz-adv-x="1220" d="M39 516q0 115 43 219.5t123 184.5q167 167 401 167q138 0 252 -57q118 -57 197 -156l20 -24l-284 -221l-19 26q-25 37 -69.5 58.5t-96.5 21.5q-88 0 -147 -59q-64 -64 -64 -160q0 -94 64 -158q61 -61 147 -61q85 0 145 50.5t72 133.5l2 25h359l-2 -33q-12 -192 -148 -340 q-129 -135 -313 -174h270v-309h-833l229 344q-151 64 -240 190q-108 148 -108 332zM100 516q0 -160 99 -295q93 -132 243 -182l39 -14l-209 -314h658v187h-330l86 118l12 2q168 27 289 158q109 115 131 268h-239q-21 -85 -88 -143q-77 -65 -185 -65q-113 0 -192 79 q-80 80 -80 201q0 120 80 203q78 78 192 78q63 0 121 -25q50 -24 76 -57l184 145q-67 69 -156 115q-102 51 -225 51q-212 0 -356 -147q-72 -72 -111 -166t-39 -197z" />
<glyph unicode="&#xe8;" horiz-adv-x="1191" d="M39 516q0 115 43 219.5t123 184.5q167 167 401 167q194 0 350 -116q142 -108 197 -269l6 -22l-534 -383h8q148 0 215 119l280 -217l-16 -23q-71 -105 -205 -168q-125 -61 -276 -61q-160 0 -296.5 76.5t-216 207.5t-79.5 285zM100 516q0 -138 71.5 -255t194 -185 t265.5 -68q124 0 235.5 48t177.5 130l-184 142q-80 -92 -229 -92q-100 0 -142 40l596 429q-48 129 -165 217q-138 104 -314 104q-101 0 -193.5 -38.5t-162.5 -110.5q-150 -150 -150 -361zM268 1427l244 175l289 -457h-348zM334 524q0 113 80 193t192 80q111 0 193 -82 l-434 -309q-31 57 -31 118zM352 1413l135 -207h201l-194 307zM395 516q0 -10 2 -14l297 213q-39 20 -88 20q-86 0 -147 -61q-64 -64 -64 -158z" />
<glyph unicode="&#xe9;" horiz-adv-x="1191" d="M39 516q0 115 43 219.5t123 184.5q167 167 401 167q194 0 350 -116q142 -108 197 -269l6 -22l-534 -383h8q148 0 215 119l280 -217l-16 -23q-71 -105 -205 -168q-125 -61 -276 -61q-160 0 -296.5 76.5t-216 207.5t-79.5 285zM100 516q0 -138 71.5 -255t194 -185 t265.5 -68q124 0 235.5 48t177.5 130l-184 142q-80 -92 -229 -92q-100 0 -142 40l596 429q-48 129 -165 217q-138 104 -314 104q-101 0 -193.5 -38.5t-162.5 -110.5q-150 -150 -150 -361zM328 1145l288 457l244 -175l-184 -282h-348zM334 524q0 113 80 193t192 80 q111 0 193 -82l-434 -309q-31 57 -31 118zM395 516q0 -10 2 -14l297 213q-39 20 -88 20q-86 0 -147 -61q-64 -64 -64 -158zM440 1206h201l135 207l-141 100z" />
<glyph unicode="&#xea;" horiz-adv-x="1191" d="M39 516q0 115 43 219.5t123 184.5q167 167 401 167q194 0 350 -116q142 -108 197 -269l6 -22l-534 -383h8q148 0 215 119l280 -217l-16 -23q-71 -105 -205 -168q-125 -61 -276 -61q-160 0 -296.5 76.5t-216 207.5t-79.5 285zM100 516q0 -138 71.5 -255t194 -185 t265.5 -68q124 0 235.5 48t177.5 130l-184 142q-80 -92 -229 -92q-100 0 -142 40l596 429q-48 129 -165 217q-138 104 -314 104q-101 0 -193.5 -38.5t-162.5 -110.5q-150 -150 -150 -361zM174 1145l401 502l404 -502h-352l-49 67l-50 -67h-354zM303 1206h195l77 111l82 -111 h193l-275 342zM334 524q0 113 80 193t192 80q111 0 193 -82l-434 -309q-31 57 -31 118zM395 516q0 -10 2 -14l297 213q-39 20 -88 20q-86 0 -147 -61q-64 -64 -64 -158z" />
<glyph unicode="&#xeb;" horiz-adv-x="1191" d="M39 516q0 115 43 219.5t123 184.5q167 167 401 167q194 0 350 -116q142 -108 197 -269l6 -22l-534 -383h8q148 0 215 119l280 -217l-16 -23q-71 -105 -205 -168q-125 -61 -276 -61q-160 0 -296.5 76.5t-216 207.5t-79.5 285zM100 516q0 -138 71.5 -255t194 -185 t265.5 -68q124 0 235.5 48t177.5 130l-184 142q-80 -92 -229 -92q-100 0 -142 40l596 429q-48 129 -165 217q-138 104 -314 104q-101 0 -193.5 -38.5t-162.5 -110.5q-150 -150 -150 -361zM154 1300q0 67 45.5 112.5t111.5 45.5q70 0 115 -44.5t45 -113.5t-45 -114 q-44 -47 -115 -47q-65 0 -110 45q-47 47 -47 116zM215 1300q0 -43 27.5 -71.5t68.5 -28.5q44 0 71.5 28.5t27.5 71.5q0 44 -27.5 70.5t-71.5 26.5q-41 0 -68.5 -27.5t-27.5 -69.5zM334 524q0 113 80 193t192 80q111 0 193 -82l-434 -309q-31 57 -31 118zM395 516 q0 -10 2 -14l297 213q-39 20 -88 20q-86 0 -147 -61q-64 -64 -64 -158zM688 1300q0 71 47 115q43 43 109 43q71 0 114 -43q48 -45 48 -115q0 -68 -48 -116q-45 -45 -114 -45q-66 0 -111 46t-45 115zM750 1300q0 -45 28 -73q30 -27 66 -27q44 0 72 28.5t28 71.5t-28 70 t-72 27q-38 0 -66 -25q-28 -28 -28 -72z" />
<glyph unicode="&#xec;" horiz-adv-x="516" d="M-74 1427l244 175l289 -457h-348zM10 1413l135 -207h201l-194 307zM82 -31v1096h352v-1096h-352zM143 31h230v973h-230v-973z" />
<glyph unicode="&#xed;" horiz-adv-x="516" d="M57 1145l289 457l244 -175l-184 -282h-349zM82 -31v1096h352v-1096h-352zM143 31h230v973h-230v-973zM170 1206h201l135 207l-141 100z" />
<glyph unicode="&#xee;" horiz-adv-x="516" d="M-139 1145l401 502l404 -502h-353l-49 67l-49 -67h-354zM-10 1206h194l78 111l82 -111h193l-275 342zM82 -31v1096h352v-1096h-352zM143 31h230v973h-230v-973z" />
<glyph unicode="&#xef;" horiz-adv-x="516" d="M-166 1300q0 67 46 112.5t112 45.5q70 0 115 -44.5t45 -113.5q0 -68 -46 -114q-44 -47 -114 -47q-66 0 -111 45q-47 47 -47 116zM-104 1300q0 -43 27.5 -71.5t68.5 -28.5q44 0 71 28.5t27 71.5q0 44 -27 70.5t-71 26.5q-42 0 -69 -27.5t-27 -69.5zM82 -31v1096h352v-1096 h-352zM143 31h230v973h-230v-973zM369 1300q0 71 47 115q43 43 108 43q72 0 115 -43q47 -44 47 -115q0 -69 -47 -116q-45 -45 -115 -45q-66 0 -110.5 46t-44.5 115zM430 1300q0 -44 29 -73q30 -27 65 -27q44 0 72.5 28.5t28.5 71.5t-28.5 70t-72.5 27q-37 0 -65 -25 q-29 -29 -29 -72z" />
<glyph unicode="&#xf0;" horiz-adv-x="1255" d="M39 516q0 115 43 219.5t123 184.5q167 167 401 167q149 0 283 -73q-16 71 -72 121l-18 -64l-230 57l25 91q-14 2 -43 2h-31v301h31q59 0 123 -11l33 115l229 -63l-39 -136q115 -69 184 -184q59 -99 82 -248q19 -133 19 -295v-184q0 -119 -45 -221q-43 -101 -125 -180 q-78 -78 -183 -123t-223 -45q-233 0 -401 168q-77 77 -121 180q-45 109 -45 221zM100 516q0 -208 150 -358q71 -72 163 -111t193 -39q103 0 199 41q93 38 164 109q151 148 151 358v184q0 357 -90 510q-70 113 -184 176l-21 13l35 121l-110 32l-33 -110l-27 4q-36 7 -108 14 v-178l57 -6l33 -6l-27 -96l111 -29l26 88l35 -21q66 -42 101.5 -107.5t35.5 -141.5v-68l-47 35q-130 96 -301 96q-101 0 -193.5 -38.5t-162.5 -110.5q-150 -150 -150 -361zM334 516q0 121 80 201t192 80q119 0 199 -80q80 -77 80 -201q0 -126 -80 -203t-199 -77 q-113 0 -190 77q-82 82 -82 203zM395 516q0 -96 64 -160q59 -59 147 -59q97 0 156 59q61 61 61 160q0 95 -61 157t-156 62q-86 0 -147 -61q-64 -64 -64 -158z" />
<glyph unicode="&#xf1;" horiz-adv-x="1253" d="M82 -31v1096h352v-37q37 22 82 37q77 22 160 22q108 0 203 -43t165 -124q68 -78 105 -183t37 -221v-547h-350v547q0 101 -50 160t-135 59q-92 0 -151 -53q-66 -60 -66 -166v-547h-352zM90 1333l21 25q75 91 158 131.5t192 40.5q70 0 166 -41q80 -33 112 -33q46 0 101 64 l18 22l254 -182l-20 -27q-64 -83 -134 -129q-86 -59 -184 -59q-48 0 -135 42t-135 42q-39 0 -69.5 -13.5t-76.5 -52.5l-18 -16zM143 31h230v485q0 134 86 211q76 70 192 70q108 0 174 -72q72 -75 72 -209v-485h227v485q0 217 -127 363q-57 68 -141 108q-79 39 -180 39 q-103 0 -175 -30t-128 -115v123h-230v-973zM178 1343l160 -118q41 32 70 47q47 18 96 18q53 0 137 -41q80 -43 133 -43q79 0 152 49q52 36 98 91l-158 114q-62 -65 -127 -65q-47 0 -135 37q-90 36 -143 36q-88 0 -155 -29.5t-128 -95.5z" />
<glyph unicode="&#xf2;" horiz-adv-x="1220" d="M39 516q0 115 43 219.5t123 184.5q167 167 401 167q118 0 223 -45q106 -45 183 -122q170 -167 170 -404q0 -119 -45 -221q-43 -101 -125 -180q-78 -78 -183 -123t-223 -45q-233 0 -401 168q-77 77 -121 180q-45 109 -45 221zM100 516q0 -208 150 -358q71 -72 163 -111 t193 -39q103 0 199 41q93 38 164 109q151 148 151 358q0 102 -39 195.5t-112 165.5q-72 72 -166 110.5t-197 38.5q-101 0 -193.5 -38.5t-162.5 -110.5q-150 -150 -150 -361zM246 1427l243 175l289 -457h-348zM330 1413l135 -207h201l-195 307zM334 516q0 121 80 201t192 80 q119 0 199 -80q80 -77 80 -201q0 -126 -80 -203t-199 -77q-113 0 -190 77q-82 82 -82 203zM395 516q0 -96 64 -160q59 -59 147 -59q97 0 156 59q61 61 61 160q0 95 -61 157t-156 62q-86 0 -147 -61q-64 -64 -64 -158z" />
<glyph unicode="&#xf3;" horiz-adv-x="1220" d="M39 516q0 115 43 219.5t123 184.5q167 167 401 167q118 0 223 -45q106 -45 183 -122q170 -167 170 -404q0 -119 -45 -221q-43 -101 -125 -180q-78 -78 -183 -123t-223 -45q-233 0 -401 168q-77 77 -121 180q-45 109 -45 221zM100 516q0 -208 150 -358q71 -72 163 -111 t193 -39q103 0 199 41q93 38 164 109q151 148 151 358q0 102 -39 195.5t-112 165.5q-72 72 -166 110.5t-197 38.5q-101 0 -193.5 -38.5t-162.5 -110.5q-150 -150 -150 -361zM334 516q0 121 80 201t192 80q119 0 199 -80q80 -77 80 -201q0 -126 -80 -203t-199 -77 q-113 0 -190 77q-82 82 -82 203zM395 516q0 -96 64 -160q59 -59 147 -59q97 0 156 59q61 61 61 160q0 95 -61 157t-156 62q-86 0 -147 -61q-64 -64 -64 -158zM414 1145l288 457l244 -175l-184 -282h-348zM526 1206h201l135 207l-141 100z" />
<glyph unicode="&#xf4;" horiz-adv-x="1220" d="M39 516q0 115 43 219.5t123 184.5q167 167 401 167q118 0 223 -45q106 -45 183 -122q170 -167 170 -404q0 -119 -45 -221q-43 -101 -125 -180q-78 -78 -183 -123t-223 -45q-233 0 -401 168q-77 77 -121 180q-45 109 -45 221zM100 516q0 -208 150 -358q71 -72 163 -111 t193 -39q103 0 199 41q93 38 164 109q151 148 151 358q0 102 -39 195.5t-112 165.5q-72 72 -166 110.5t-197 38.5q-101 0 -193.5 -38.5t-162.5 -110.5q-150 -150 -150 -361zM199 1145l401 502l404 -502h-353l-49 67l-49 -67h-354zM328 1206h194l78 111l82 -111h192l-274 342 zM334 516q0 121 80 201t192 80q119 0 199 -80q80 -77 80 -201q0 -126 -80 -203t-199 -77q-113 0 -190 77q-82 82 -82 203zM395 516q0 -96 64 -160q59 -59 147 -59q97 0 156 59q61 61 61 160q0 95 -61 157t-156 62q-86 0 -147 -61q-64 -64 -64 -158z" />
<glyph unicode="&#xf5;" horiz-adv-x="1220" d="M39 516q0 115 43 219.5t123 184.5q167 167 401 167q118 0 223 -45q106 -45 183 -122q170 -167 170 -404q0 -119 -45 -221q-43 -101 -125 -180q-78 -78 -183 -123t-223 -45q-233 0 -401 168q-77 77 -121 180q-45 109 -45 221zM100 516q0 -208 150 -358q71 -72 163 -111 t193 -39q103 0 199 41q93 38 164 109q151 148 151 358q0 102 -39 195.5t-112 165.5q-72 72 -166 110.5t-197 38.5q-101 0 -193.5 -38.5t-162.5 -110.5q-150 -150 -150 -361zM111 1333l20 25q75 91 158 131.5t192 40.5q70 0 166 -41q80 -33 113 -33q45 0 100 64l19 22 l254 -182l-21 -27q-65 -84 -133 -129q-86 -59 -184 -59q-48 0 -135.5 42t-135.5 42q-39 0 -68.5 -13.5t-76.5 -52.5l-19 -16zM199 1343l159 -118q41 32 70 47q47 18 96 18q54 0 138 -41q80 -43 133 -43q78 0 151 49q52 36 98 91l-157 114q-62 -65 -127 -65q-47 0 -135 37 q-90 36 -144 36q-88 0 -154 -29.5t-128 -95.5zM334 516q0 121 80 201t192 80q119 0 199 -80q80 -77 80 -201q0 -126 -80 -203t-199 -77q-113 0 -190 77q-82 82 -82 203zM395 516q0 -96 64 -160q59 -59 147 -59q97 0 156 59q61 61 61 160q0 95 -61 157t-156 62 q-86 0 -147 -61q-64 -64 -64 -158z" />
<glyph unicode="&#xf6;" horiz-adv-x="1220" d="M39 516q0 115 43 219.5t123 184.5q167 167 401 167q118 0 223 -45q106 -45 183 -122q170 -167 170 -404q0 -119 -45 -221q-43 -101 -125 -180q-78 -78 -183 -123t-223 -45q-233 0 -401 168q-77 77 -121 180q-45 109 -45 221zM100 516q0 -208 150 -358q71 -72 163 -111 t193 -39q103 0 199 41q93 38 164 109q151 148 151 358q0 102 -39 195.5t-112 165.5q-72 72 -166 110.5t-197 38.5q-101 0 -193.5 -38.5t-162.5 -110.5q-150 -150 -150 -361zM178 1300q0 67 46 112.5t112 45.5q70 0 115 -44.5t45 -113.5t-45 -114q-44 -47 -115 -47 q-66 0 -111 45q-47 47 -47 116zM240 1300q0 -43 27.5 -71.5t68.5 -28.5q44 0 71 28.5t27 71.5q0 44 -27 70.5t-71 26.5q-42 0 -69 -27.5t-27 -69.5zM334 516q0 121 80 201t192 80q119 0 199 -80q80 -77 80 -201q0 -126 -80 -203t-199 -77q-113 0 -190 77q-82 82 -82 203z M395 516q0 -96 64 -160q59 -59 147 -59q97 0 156 59q61 61 61 160q0 95 -61 157t-156 62q-86 0 -147 -61q-64 -64 -64 -158zM713 1300q0 71 47 115q43 43 108 43q72 0 115 -43q47 -44 47 -115q0 -69 -47 -116q-45 -45 -115 -45q-66 0 -110.5 46t-44.5 115zM774 1300 q0 -44 29 -73q30 -27 65 -27q44 0 72.5 28.5t28.5 71.5t-28.5 70t-72.5 27q-37 0 -65 -25q-29 -29 -29 -72z" />
<glyph unicode="&#xf7;" horiz-adv-x="1204" d="M76 578v290h1052v-290h-1052zM137 639h930v168h-930v-168zM436 336q0 79 51.5 131.5t128.5 52.5q82 0 134.5 -51.5t52.5 -132.5q0 -78 -49 -127q-56 -53 -138 -53q-75 0 -127.5 52.5t-52.5 127.5zM436 1104q0 82 51 133q53 53 129 53q82 0 134.5 -52t52.5 -134 q0 -74 -49 -123q-56 -53 -138 -53q-74 0 -127 53q-53 50 -53 123zM498 336q0 -50 34 -84q35 -35 84 -35q58 0 93 35q32 32 32 84q0 55 -34.5 89t-90.5 34q-51 0 -84.5 -34.5t-33.5 -88.5zM498 1104q0 -46 34 -80q35 -35 84 -35q58 0 93 35q32 28 32 80q0 53 -32 90 q-32 35 -93 35q-51 0 -84 -33q-34 -37 -34 -92z" />
<glyph unicode="&#xf8;" horiz-adv-x="1220" d="M39 516q0 115 43 219.5t123 184.5q167 167 401 167q78 0 154 -20l12 20h328l-92 -163q74 -74 122 -172q52 -110 52 -236q0 -119 -45 -221q-43 -101 -125 -180q-78 -78 -183 -123t-223 -45q-66 0 -143 18l-8 -18h-344l96 164q-72 72 -117 170q-51 114 -51 235zM100 516 q0 -109 45 -211q44 -95 121 -166l21 -16l-68 -115h197l16 31l25 -8q87 -23 149 -23q103 0 199 41q93 38 164 109q151 148 151 358q0 108 -44 206.5t-128 172.5l-16 16l63 115h-188l-21 -33l-22 8q-86 25 -158 25q-101 0 -193.5 -38.5t-162.5 -110.5q-150 -150 -150 -361z M334 516q0 121 80 201t192 80h70l-279 -475l-26 47q-37 69 -37 147zM395 516q0 -23 8 -63l162 278q-64 -13 -106 -57q-64 -64 -64 -158zM545 236l268 473l29 -41q43 -61 43 -152q0 -126 -80 -203t-199 -77h-61zM651 301q70 13 111 57q61 64 61 158q0 41 -10 70z" />
<glyph unicode="&#xf9;" horiz-adv-x="1253" d="M68 496v569h352v-545q0 -95 52 -159t130 -64q98 0 154 49q65 56 65 174v545h350v-1096h-350v41q-48 -25 -90 -37q-86 -26 -168 -26q-104 0 -196 42.5t-162 121.5q-137 159 -137 385zM129 496q0 -206 123 -344q125 -144 311 -144q211 0 320 146v-123h227v973h-227v-484 q0 -148 -88 -221q-72 -63 -193 -63q-103 0 -174 81q-70 82 -70 203v484h-229v-508zM293 1427l244 175l288 -457h-348zM377 1413l135 -207h201l-195 307z" />
<glyph unicode="&#xfa;" horiz-adv-x="1253" d="M68 496v569h352v-545q0 -95 52 -159t130 -64q98 0 154 49q65 56 65 174v545h350v-1096h-350v41q-48 -25 -90 -37q-86 -26 -168 -26q-104 0 -196 42.5t-162 121.5q-137 159 -137 385zM129 496q0 -206 123 -344q125 -144 311 -144q211 0 320 146v-123h227v973h-227v-484 q0 -148 -88 -221q-72 -63 -193 -63q-103 0 -174 81q-70 82 -70 203v484h-229v-508zM424 1145l289 457l243 -175l-184 -282h-348zM537 1206h200l135 207l-141 100z" />
<glyph unicode="&#xfb;" horiz-adv-x="1253" d="M68 496v569h352v-545q0 -95 52 -159t130 -64q98 0 154 49q65 56 65 174v545h350v-1096h-350v41q-48 -25 -90 -37q-86 -26 -168 -26q-104 0 -196 42.5t-162 121.5q-137 159 -137 385zM129 496q0 -206 123 -344q125 -144 311 -144q211 0 320 146v-123h227v973h-227v-484 q0 -148 -88 -221q-72 -63 -193 -63q-103 0 -174 81q-70 82 -70 203v484h-229v-508zM221 1145l402 502l403 -502h-352l-49 67l-50 -67h-354zM350 1206h195l78 111l82 -111h192l-274 342z" />
<glyph unicode="&#xfc;" horiz-adv-x="1253" d="M68 496v569h352v-545q0 -95 52 -159t130 -64q98 0 154 49q65 56 65 174v545h350v-1096h-350v41q-48 -25 -90 -37q-86 -26 -168 -26q-104 0 -196 42.5t-162 121.5q-137 159 -137 385zM129 496q0 -206 123 -344q125 -144 311 -144q211 0 320 146v-123h227v973h-227v-484 q0 -148 -88 -221q-72 -63 -193 -63q-103 0 -174 81q-70 82 -70 203v484h-229v-508zM193 1300q0 67 45.5 112.5t111.5 45.5q70 0 115 -44.5t45 -113.5t-45 -114q-44 -47 -115 -47q-65 0 -110 45q-47 47 -47 116zM254 1300q0 -43 27.5 -71.5t68.5 -28.5q44 0 71.5 28.5 t27.5 71.5q0 44 -27.5 70.5t-71.5 26.5q-42 0 -69 -27.5t-27 -69.5zM727 1300q0 71 47 115q43 43 109 43q71 0 114 -43q47 -44 47 -115q0 -69 -47 -116q-45 -45 -114 -45q-66 0 -111 46t-45 115zM788 1300q0 -44 29 -73q30 -27 66 -27q44 0 72 28.5t28 71.5t-28 70t-72 27 q-38 0 -66 -25q-29 -29 -29 -72z" />
<glyph unicode="&#xfd;" horiz-adv-x="1196" d="M-51 1065h389l278 -598l275 598h356l-739 -1589h-369l291 622zM49 1004l449 -904l-262 -563h233l682 1467h-221l-312 -682l-319 682h-250zM397 1145l289 457l244 -175l-185 -282h-348zM510 1206h201l135 207l-141 100z" />
<glyph unicode="&#xfe;" d="M82 -524v2080h352v-530q95 61 221 61q113 0 213.5 -43t173.5 -122q152 -164 152 -402q0 -233 -156 -403q-77 -82 -176 -126t-207 -44q-75 0 -145 24q-39 14 -76 37v-532h-352zM143 -463h230v619q61 -83 128.5 -115.5t153.5 -32.5q95 0 182.5 39t155.5 111 q140 152 140 362q0 214 -136 359q-135 147 -342 147q-71 0 -147 -32.5t-135 -104.5v606h-230v-1958zM360 518q0 122 76 201q75 78 191 78q114 0 192 -78q80 -80 80 -201q0 -120 -80 -203q-79 -79 -192 -79q-116 0 -191 81q-76 79 -76 201zM422 518q0 -98 59 -160 q58 -61 146 -61q90 0 150.5 63.5t60.5 157.5q0 93 -62 158q-59 59 -149 59q-89 0 -148 -59q-57 -60 -57 -158z" />
<glyph unicode="&#xff;" horiz-adv-x="1196" d="M-51 1065h389l278 -598l275 598h356l-739 -1589h-369l291 622zM49 1004l449 -904l-262 -563h233l682 1467h-221l-312 -682l-319 682h-250zM182 1298q0 67 46 112.5t112 45.5q70 0 115 -44.5t45 -113.5t-45 -114q-44 -47 -115 -47q-66 0 -111 45q-47 47 -47 116zM244 1298 q0 -43 27.5 -71.5t68.5 -28.5q44 0 71 28.5t27 71.5q0 44 -27 70.5t-71 26.5q-42 0 -69 -27.5t-27 -69.5zM717 1298q0 71 47 115q43 43 108 43q72 0 115 -43q47 -44 47 -115q0 -69 -47 -116q-45 -45 -115 -45q-66 0 -110.5 46t-44.5 115zM778 1298q0 -44 29 -73 q30 -27 65 -27q44 0 72.5 28.5t28.5 71.5t-28.5 70t-72.5 27q-37 0 -65 -25q-29 -29 -29 -72z" />
<glyph unicode="&#x152;" horiz-adv-x="2381" d="M61 764q0 162 66 319q62 145 174 260q112 112 262 175q151 65 318 65q236 0 434 -133v106h870v-348h-493v-223h575v-346h-575v-322h630v-348h-1007v107q-195 -133 -432 -133q-169 0 -320 65q-148 62 -260 174q-114 114 -176 262q-66 153 -66 320zM123 764q0 -152 58 -291 t165 -246t246 -165t291 -58q260 0 493 197v-170h885v225h-631v444h576v224h-576v346h494v225h-748v-168q-127 107 -246.5 151t-248.5 44q-151 0 -290 -58t-245 -164q-108 -108 -165.5 -246t-57.5 -290zM387 764q0 103 37 197.5t106 166.5q69 73 160 112.5t191 39.5 q97 0 186 -37t158 -106q70 -70 109 -161t42 -190v-22q0 -105 -36.5 -200.5t-104.5 -166.5q-146 -149 -352 -149q-101 0 -192.5 38.5t-160.5 110.5t-106 167.5t-37 199.5zM449 764q0 -195 126 -324q60 -63 140 -97t168 -34q179 0 307 131q125 128 125 324v20q-6 181 -133 308 t-301 127q-180 0 -308 -134q-124 -130 -124 -321z" />
<glyph unicode="&#x153;" horiz-adv-x="1978" d="M39 516q0 115 43 219.5t123 184.5q79 81 182.5 124t218.5 43q107 0 209 -41t184 -116q68 65 162 108q110 49 232 49q195 0 348 -116q140 -107 196 -269l7 -22l-535 -383h8q148 0 215 119l281 -217l-17 -23q-66 -103 -202 -168q-128 -61 -277 -61q-240 0 -413 162 q-70 -68 -166 -113q-110 -49 -232 -49q-114 0 -218 43.5t-183 124.5q-77 77 -121 180q-45 102 -45 221zM100 516q0 -207 148 -358q150 -150 358 -150q109 0 207 43q93 43 168 121l23 25l22 -25q158 -164 391 -164q123 0 235.5 48.5t176.5 129.5l-184 142q-37 -44 -97.5 -68 t-132.5 -24q-99 0 -141 40l596 429q-47 128 -166 217q-138 104 -311 104q-109 0 -207 -43q-95 -45 -164 -117l-23 -24l-22 24q-74 75 -171.5 117.5t-199.5 42.5q-209 0 -358 -149q-148 -151 -148 -361zM334 516q0 121 80 201t192 80q119 0 199 -80t80 -201q0 -123 -80 -203 q-80 -77 -199 -77q-113 0 -190 77q-82 82 -82 203zM395 516q0 -95 62 -160q59 -59 149 -59q95 0 156 61t61 158q0 95 -61.5 157t-155.5 62q-88 0 -149 -61q-62 -65 -62 -158zM1118 524q0 113 80 193t193 80q110 0 192 -82l-434 -309q-31 57 -31 118zM1180 516q0 -10 2 -14 l297 213q-39 20 -88 20q-87 0 -148 -61q-63 -63 -63 -158z" />
<glyph unicode="&#x178;" horiz-adv-x="1585" d="M-55 1556h436l426 -720l430 720h405l-651 -1073v-514h-377v486zM53 1495l623 -1024v-440h254v469l604 995h-262l-465 -778l-461 778h-293zM381 1780q0 67 46 112t112 45q70 0 114.5 -44t44.5 -113q0 -70 -45 -115q-44 -47 -114 -47q-66 0 -111 45q-47 47 -47 117z M442 1780q0 -43 28 -72t69 -29q44 0 71 29t27 72q0 44 -27 70t-71 26q-42 0 -69.5 -27t-27.5 -69zM915 1780q0 69 48 114q43 43 108 43q72 0 115 -43q47 -44 47 -114t-47 -117q-45 -45 -115 -45q-66 0 -111 46.5t-45 115.5zM977 1780q0 -45 29 -74q30 -27 65 -27q44 0 72 29 t28 72t-28 69.5t-72 26.5q-37 0 -65 -25q-29 -29 -29 -71z" />
<glyph unicode="&#x2c6;" horiz-adv-x="1869" d="M532 1624l402 502l403 -502h-352l-49 68l-49 -68h-355zM662 1686h194l78 110l82 -110h192l-274 342z" />
<glyph unicode="&#x2dc;" horiz-adv-x="1734" d="M354 1812l21 25q75 91 158 131.5t192 40.5q70 0 166 -41q80 -33 113 -33q45 0 100 64l18 22l254 -182l-20 -27q-65 -84 -133 -129q-86 -59 -185 -59q-63 0 -159 47q-4 2 -20.5 9.5t-23.5 10.5t-20.5 8t-24.5 7t-22 2q-39 0 -68.5 -13.5t-76.5 -52.5l-19 -16zM442 1823 l160 -119q41 32 70 47q46 18 96 18q55 0 137 -40q80 -43 133 -43q79 0 152 49q54 38 98 90l-158 114q-62 -65 -126 -65q-48 0 -136 37q-93 37 -143 37q-88 0 -155 -29.5t-128 -95.5z" />
<glyph unicode="&#x2000;" horiz-adv-x="1064" />
<glyph unicode="&#x2001;" horiz-adv-x="2128" />
<glyph unicode="&#x2002;" horiz-adv-x="1064" />
<glyph unicode="&#x2003;" horiz-adv-x="2128" />
<glyph unicode="&#x2004;" horiz-adv-x="709" />
<glyph unicode="&#x2005;" horiz-adv-x="532" />
<glyph unicode="&#x2006;" horiz-adv-x="354" />
<glyph unicode="&#x2007;" horiz-adv-x="354" />
<glyph unicode="&#x2008;" horiz-adv-x="266" />
<glyph unicode="&#x2009;" horiz-adv-x="425" />
<glyph unicode="&#x200a;" horiz-adv-x="118" />
<glyph unicode="&#x2010;" horiz-adv-x="808" d="M76 485v289h657v-289h-657zM137 547h535v166h-535v-166z" />
<glyph unicode="&#x2011;" horiz-adv-x="808" d="M76 485v289h657v-289h-657zM137 547h535v166h-535v-166z" />
<glyph unicode="&#x2012;" horiz-adv-x="808" d="M76 485v289h657v-289h-657zM137 547h535v166h-535v-166z" />
<glyph unicode="&#x2013;" horiz-adv-x="1464" d="M125 485v267h1214v-267h-1214zM186 547h1092v143h-1092v-143z" />
<glyph unicode="&#x2014;" horiz-adv-x="2232" d="M125 485v267h1980v-267h-1980zM186 547h1858v143h-1858v-143z" />
<glyph unicode="&#x2018;" horiz-adv-x="450" d="M35 1057l162 526h229v-526h-391zM119 1118h246v404h-123z" />
<glyph unicode="&#x2019;" horiz-adv-x="430" d="M45 1057v526h393l-164 -526h-229zM106 1118h123l125 404h-248v-404z" />
<glyph unicode="&#x201a;" horiz-adv-x="598" d="M2 -365l158 527h403l-321 -527h-240zM84 -303h123l246 403h-248z" />
<glyph unicode="&#x201c;" horiz-adv-x="892" d="M31 1057l243 526h256l-108 -526h-391zM127 1118h244l84 404h-142zM492 1057l161 526h230v-526h-391zM575 1118h246v404h-123z" />
<glyph unicode="&#x201d;" horiz-adv-x="841" d="M39 1057v526h393l-164 -526h-229zM100 1118h123l125 404h-248v-404zM393 1057l107 526h393l-244 -526h-256zM469 1118h141l187 404h-246z" />
<glyph unicode="&#x201e;" horiz-adv-x="980" d="M0 -365l156 527h788l-319 -527h-242l139 461l-280 -461h-242zM82 -303h125l246 403h-250zM467 -303h123l246 403h-248z" />
<glyph unicode="&#x2022;" horiz-adv-x="579" d="M53 711q0 104 66 170q67 67 172 67q103 0 170 -67q65 -68 65 -170q0 -96 -63 -162q-72 -72 -172 -72t-172 72q-66 66 -66 162zM115 711q0 -73 49 -119q47 -53 127 -53q76 0 127 51q47 50 47 121q0 78 -49 127q-46 49 -125 49q-81 0 -127 -49q-49 -49 -49 -127z" />
<glyph unicode="&#x2026;" horiz-adv-x="1908" d="M133 129q0 80 53 133q55 55 136 55q82 0 137 -55q51 -54 51 -133q0 -80 -51 -131q-55 -55 -137 -55q-81 0 -136 55q-53 53 -53 131zM195 129q0 -54 34 -88q37 -37 93 -37q57 0 94 37q33 38 33 88q0 55 -35 90q-34 37 -92 37q-56 0 -93 -37q-34 -34 -34 -90zM766 129 q0 80 53 133q55 55 135 55q81 0 135 -54t54 -134t-51 -131q-55 -55 -138 -55q-80 0 -135 55q-53 53 -53 131zM827 129q0 -53 35 -88q37 -37 92 -37q58 0 95 37q32 37 32 88q0 56 -34 90q-34 37 -93 37q-55 0 -92 -37q-35 -35 -35 -90zM1397 129q0 80 54.5 134t135.5 54 t135 -54t54 -134q0 -79 -52 -131q-55 -55 -137 -55q-80 0 -135 55t-55 131zM1458 129q0 -51 37 -88q34 -37 92 -37q57 0 94 37q33 38 33 88q0 55 -35 90q-34 37 -92 37q-56 0 -92.5 -36t-36.5 -91z" />
<glyph unicode="&#x202f;" horiz-adv-x="425" />
<glyph unicode="&#x2039;" horiz-adv-x="870" d="M-10 762l690 592l166 -240l-422 -352l422 -350l-166 -240zM84 762l584 -498l94 137l-434 361l434 362l-94 138z" />
<glyph unicode="&#x203a;" horiz-adv-x="870" d="M29 412l422 350l-422 352l166 240l690 -592l-690 -590zM113 401l94 -137l584 498l-584 500l-94 -138l434 -362z" />
<glyph unicode="&#x205f;" horiz-adv-x="532" />
<glyph unicode="&#x20ac;" horiz-adv-x="1576" d="M39 401v324h121q-2 6 -2 25v10h-119v325h186q93 219 287 353q204 145 461 145q167 0 315 -74q145 -71 252 -196l21 -27l-301 -221l-19 22q-53 63 -122 97.5t-144 34.5q-175 0 -303 -134h327v-325h-454v-19q0 -8 2 -16h452v-324h-286q45 -35 88 -55q81 -37 174 -37 q157 0 264 129l18 21l304 -223l-21 -25q-110 -129 -256.5 -198.5t-308.5 -69.5q-247 0 -445 133q-184 120 -286 325h-205zM100 463h183l8 -19q89 -197 272 -317q189 -123 412 -123q151 0 289 66q126 65 206 157l-202 150q-123 -129 -293 -129q-109 0 -199 43 q-95 45 -162 121l-45 51h369v201h-446q-9 30 -9 84q0 25 2 45l4 28h449v203h-391l35 49q72 98 175 152.5t218 54.5q170 0 295 -131l200 147q-88 98 -208 158q-136 68 -289 68q-233 0 -426 -133q-189 -132 -273 -347l-6 -18h-168v-203h125l-4 -33q-2 -23 -2 -38q0 -27 2 -54 l4 -32h-125v-201z" />
<glyph unicode="&#x2122;" horiz-adv-x="1763" d="M18 1298v258h656v-258h-193v-632h-272v632h-191zM80 1360h190v-633h150v633h192v135h-532v-135zM696 666v948l473 -354l469 356v-950h-266v411l-203 -143l-198 143v-411h-275zM758 727h151v471l260 -188l265 186v-469h143v764l-408 -307l-411 307v-764z" />
<glyph unicode="&#x25fc;" horiz-adv-x="1064" d="M0 0v1065h1065v-1065h-1065z" />
</font>
</defs>
</svg>
